<?xml version="1.0" encoding="utf-8" ?>
<svg xmlns="http://www.w3.org/2000/svg" xmlns:xlink="http://www.w3.org/1999/xlink" width="109" height="50">
	<path fill="#FAFCFA" transform="scale(0.0535294 0.0488281)" d="M0 0L2046.25 0C2048.75 3.75313 2047.99 9.76244 2047.99 14.1208L2048.02 767.612L2048.01 954.147C2048.01 967.073 2049.66 1011.74 2047.62 1020.8C2047.36 1021.98 2046.85 1022.96 2046.25 1024L0 1024L0 0Z"/>
	<path fill="#76AF0A" transform="scale(0.0535294 0.0488281)" d="M1738.57 512.496C1739.02 512.872 1739.32 513.242 1739.55 513.787C1741.48 518.383 1739.8 528.319 1739.22 533.269Q1738.33 540.472 1737.18 547.637Q1736.03 554.803 1734.62 561.92Q1733.2 569.038 1731.52 576.099Q1729.85 583.159 1727.91 590.153Q1725.97 597.146 1723.77 604.064Q1721.58 610.981 1719.13 617.812Q1716.68 624.643 1713.98 631.379Q1711.28 638.115 1708.33 644.746C1680.09 706.928 1625.34 771.05 1560.02 795.617L1559.98 795.412C1562.45 791.335 1572.06 786.511 1576.14 783.481C1660.24 721.023 1723.19 616.237 1738.57 512.496Z"/>
	<path fill="#ECA733" transform="scale(0.0535294 0.0488281)" d="M1300.3 243.499C1314.03 241.994 1326.21 242.576 1337.6 251.538Q1338.45 252.211 1339.27 252.924Q1340.08 253.638 1340.86 254.392Q1341.64 255.145 1342.38 255.936Q1343.13 256.727 1343.83 257.554Q1344.53 258.381 1345.19 259.241Q1345.85 260.102 1346.47 260.994Q1347.08 261.886 1347.65 262.807Q1348.23 263.729 1348.75 264.678Q1349.28 265.626 1349.75 266.6Q1350.23 267.573 1350.66 268.569Q1351.09 269.565 1351.47 270.581Q1351.85 271.597 1352.18 272.631Q1352.5 273.664 1352.78 274.713Q1353.06 275.761 1353.28 276.822Q1353.51 277.883 1353.68 278.953Q1353.85 280.024 1353.97 281.102Q1354.08 282.187 1354.14 283.277Q1354.2 284.366 1354.2 285.457Q1354.2 286.548 1354.15 287.637Q1354.1 288.727 1354 289.813Q1353.89 290.899 1353.74 291.978Q1353.58 293.058 1353.37 294.128Q1353.16 295.199 1352.9 296.258Q1352.64 297.316 1352.32 298.361Q1352.01 299.406 1351.64 300.434Q1351.28 301.462 1350.86 302.47Q1350.45 303.479 1349.98 304.466Q1349.52 305.453 1349.01 306.417Q1348.49 307.38 1347.94 308.316Q1347.38 309.253 1346.77 310.161Q1346.17 311.069 1345.52 311.946Q1344.87 312.824 1344.18 313.668C1337.31 322.05 1328.01 327.3 1317.23 328.416C1310.56 330.571 1299.17 328.643 1292.93 325.94C1282.61 321.473 1274.27 312.38 1270.16 301.979Q1269.76 300.964 1269.42 299.932Q1269.08 298.899 1268.78 297.85Q1268.49 296.801 1268.25 295.74Q1268.01 294.678 1267.82 293.605Q1267.63 292.533 1267.49 291.452Q1267.36 290.372 1267.27 289.286Q1267.19 288.2 1267.16 287.112Q1267.14 286.023 1267.16 284.935Q1267.19 283.846 1267.27 282.76Q1267.34 281.674 1267.48 280.593Q1267.61 279.512 1267.8 278.439Q1267.98 277.366 1268.22 276.304Q1268.46 275.241 1268.75 274.192Q1269.04 273.142 1269.38 272.108Q1269.72 271.075 1270.12 270.059Q1270.51 269.043 1270.95 268.048C1276.81 255.139 1287.47 248.201 1300.3 243.499Z"/>
	<path fill="#ECA733" transform="scale(0.0535294 0.0488281)" d="M1846.63 312.499L1848.54 312.766C1849.72 313.878 1850.03 314.152 1850.5 315.717C1853.16 324.482 1853.47 333.987 1853.67 343.074C1854.44 376.324 1848.54 409.086 1832.53 438.479C1816.79 467.369 1791.79 489.859 1760.09 499.238C1760.74 498.701 1761.35 498.13 1761.99 497.568C1762.39 497.21 1762.81 496.864 1763.19 496.479C1768.28 491.307 1819.6 382.692 1819.61 376.805L1819.59 376.101C1810.51 390.488 1799.77 408.428 1791.76 423.365C1785.74 434.589 1762.25 488.483 1755.03 494.114C1757.29 488.663 1755.04 479.844 1754.56 473.992C1749.94 417.967 1775.81 370.112 1817.28 333.845C1824.17 327.824 1842.34 317.802 1846.37 312.842C1846.46 312.73 1846.54 312.613 1846.63 312.499Z"/>
	<path fill="#ECA733" transform="scale(0.0535294 0.0488281)" d="M1455.9 584.497C1466.4 582.85 1488.54 595.69 1497.63 601.199C1532.21 622.169 1553.56 658.681 1562.84 697.277C1566.62 713.015 1573.79 752.53 1565.02 766.919C1565.06 766.745 1565.1 766.572 1565.13 766.396C1565.19 766.105 1565.22 765.809 1565.27 765.518C1565.45 764.559 1565.67 763.662 1565.59 762.67C1564.09 745.249 1513.49 661.655 1500.38 650.778C1500.4 650.364 1500.44 650.154 1500.28 649.717C1499.56 647.624 1498.05 645.511 1496.15 644.397C1496.34 648.433 1503.71 658.696 1505.85 662.52C1516.79 682.105 1554.71 746.711 1554.14 765.526C1549.65 761.108 1529.5 750.315 1521.87 744.098C1484.8 713.899 1460.73 665.403 1456.04 618.221C1454.95 607.242 1457.16 595.984 1455.97 585.087C1455.95 584.89 1455.93 584.693 1455.9 584.497Z"/>
	<path fill="#76AF0A" transform="scale(0.0535294 0.0488281)" d="M1607.16 306.497C1610.73 305.842 1613.5 307.893 1616.43 309.658C1664.89 338.935 1705.88 389.619 1719.27 444.916C1726.83 476.116 1726.57 528.989 1709.45 557.096C1709.77 556.102 1710.02 555.067 1709.98 554.016C1708.44 519.056 1681.51 456.911 1665.5 425.35C1661.71 417.876 1657.53 407.233 1651.43 401.5C1651.46 401.282 1651.5 401.065 1651.52 400.845C1651.74 398.368 1647.76 393.766 1646.25 391.882C1647.93 401.063 1654.77 411.754 1658.62 420.553Q1665.22 435.913 1671.16 451.543C1677.65 468.451 1705.3 549.007 1699.38 562.284C1696.89 556.239 1680.6 544.46 1675.37 539.055C1661.18 524.378 1648.12 506.71 1637.81 489.174C1612.21 445.625 1604.65 393.944 1605.51 344.136C1605.68 333.804 1609.41 316.24 1607.31 307.088C1607.27 306.89 1607.21 306.694 1607.16 306.497Z"/>
	<path fill="#76AF0A" transform="scale(0.0535294 0.0488281)" d="M1938.43 446.499C1947.2 445.783 1955.96 445.825 1964.75 445.814C1965.01 446.578 1965.2 447.308 1965.29 448.117C1967.01 462.419 1935.01 510.931 1926.05 522.351C1881.47 579.215 1816.17 611.24 1745.29 619.715C1755.08 614.019 1771.56 595.315 1780.7 586.881C1794.42 574.231 1808.9 562.265 1823.48 550.623C1833.35 542.742 1871.9 518.556 1876.78 512.512C1882.74 510.123 1889.01 505.96 1893.12 501.016C1879.91 508.172 1866.14 514.384 1853.1 521.843C1834.32 532.585 1816.7 545.7 1799.57 558.87Q1782.43 572.263 1766.59 587.181C1759.19 594.02 1747.14 609.002 1738.44 613.03C1744.22 606.667 1752.25 583.16 1756.7 574.294Q1760.96 565.892 1765.85 557.847Q1770.75 549.803 1776.26 542.164C1805.15 501.278 1849.31 469.009 1897.38 454.804C1910.75 450.855 1924.71 448.84 1938.43 446.499Z"/>
	<defs>
		<linearGradient id="gradient_0" gradientUnits="userSpaceOnUse" x1="1341.9276" y1="84.154099" x2="1519.844" y2="249.48264">
			<stop offset="0" stop-color="#7AB50D"/>
			<stop offset="1" stop-color="#C0DA0B"/>
		</linearGradient>
	</defs>
	<path fill="url(#gradient_0)" transform="scale(0.0535294 0.0488281)" d="M1339.42 78.4986C1350.23 78.0378 1363.62 81.3498 1374.15 83.8117C1426.1 95.9541 1471.36 124.975 1499.68 170.909C1508.48 185.18 1533.28 236.949 1529.62 252.429C1528.45 252.118 1426.6 156.587 1412.71 144.712L1410.74 145.47C1410.95 145.599 1411.15 145.724 1411.36 145.857C1421.11 152.248 1516.25 254.698 1518.17 264.81C1483.78 261.448 1446.53 245.809 1419.41 224.573C1373.3 188.456 1346.42 136.262 1339.42 78.4986Z"/>
	<path fill="#76AF0A" transform="scale(0.0535294 0.0488281)" d="M1481.76 442.498C1496.41 443.887 1515.16 453.906 1528.41 460.373C1583.71 487.372 1629.86 538.934 1649.73 597.218C1655.49 614.107 1665.48 653.495 1657.26 670.279C1657.45 668.834 1657.46 667.523 1657.09 666.098C1649.19 635.715 1570.73 533.646 1545.29 519.089C1545.2 518.841 1545.13 518.585 1545.02 518.344C1543.24 514.483 1538.22 512.299 1534.49 510.969C1546.24 519.206 1570.93 550.319 1580.5 563.099C1592.12 578.616 1645.94 654.472 1644.05 667.604C1640.18 663.193 1613.96 651.987 1607.06 647.935C1597.36 642.236 1588.49 635.946 1579.72 628.923C1517.74 579.31 1490.34 520.273 1481.76 442.498Z"/>
	<path fill="#ECA733" transform="scale(0.0535294 0.0488281)" d="M1173.99 101.499C1193.49 99.9547 1212.21 103.507 1228.25 115.258Q1229.77 116.37 1231.22 117.556Q1232.68 118.741 1234.08 119.997Q1235.48 121.253 1236.81 122.577Q1238.15 123.901 1239.42 125.289Q1240.68 126.676 1241.88 128.125Q1243.08 129.574 1244.2 131.08Q1245.33 132.586 1246.38 134.146Q1247.42 135.706 1248.4 137.315Q1249.37 138.925 1250.26 140.581Q1251.15 142.236 1251.95 143.934Q1252.76 145.631 1253.48 147.366Q1254.2 149.102 1254.84 150.871Q1255.48 152.639 1256.02 154.437Q1256.57 156.235 1257.03 158.058Q1257.49 159.881 1257.86 161.725Q1258.22 163.568 1258.5 165.427Q1258.76 167.181 1258.94 168.946Q1259.12 170.711 1259.21 172.482Q1259.3 174.254 1259.3 176.027Q1259.3 177.801 1259.22 179.573Q1259.13 181.345 1258.96 183.11Q1258.78 184.875 1258.52 186.63Q1258.26 188.384 1257.92 190.124Q1257.57 191.863 1257.14 193.583Q1256.7 195.304 1256.19 197Q1255.67 198.697 1255.07 200.366Q1254.47 202.035 1253.79 203.673Q1253.1 205.31 1252.34 206.911Q1251.58 208.513 1250.74 210.075Q1249.9 211.637 1248.98 213.155Q1248.06 214.673 1247.07 216.145Q1246.08 217.616 1245.02 219.036C1232 236.562 1213.58 246.43 1192.22 249.521Q1190.58 249.726 1188.93 249.858Q1187.28 249.991 1185.63 250.051Q1183.98 250.111 1182.33 250.098Q1180.67 250.086 1179.02 250Q1177.37 249.915 1175.73 249.757Q1174.08 249.599 1172.44 249.369Q1170.81 249.139 1169.18 248.837Q1167.56 248.536 1165.95 248.163Q1164.34 247.79 1162.74 247.347Q1161.15 246.903 1159.58 246.39Q1158.01 245.878 1156.46 245.296Q1154.91 244.715 1153.39 244.066Q1151.87 243.417 1150.38 242.702Q1148.89 241.986 1147.43 241.206Q1145.98 240.426 1144.55 239.583Q1143.13 238.74 1141.75 237.835C1125.07 226.792 1113.49 210.678 1109.6 190.929Q1109.41 189.996 1109.24 189.058Q1109.07 188.121 1108.92 187.18Q1108.78 186.238 1108.66 185.293Q1108.54 184.349 1108.44 183.401Q1108.34 182.454 1108.26 181.504Q1108.19 180.555 1108.14 179.603Q1108.09 178.652 1108.06 177.7Q1108.03 176.748 1108.03 175.795Q1108.02 174.843 1108.04 173.89Q1108.06 172.938 1108.11 171.986Q1108.15 171.035 1108.22 170.085Q1108.28 169.134 1108.37 168.186Q1108.46 167.238 1108.58 166.292Q1108.69 165.346 1108.83 164.404Q1108.97 163.461 1109.13 162.522Q1109.29 161.584 1109.48 160.649Q1109.66 159.715 1109.87 158.785Q1110.07 157.855 1110.31 156.931Q1110.54 156.007 1110.79 155.088Q1111.04 154.17 1111.32 153.259Q1111.6 152.347 1111.89 151.442Q1112.19 150.538 1112.51 149.641Q1112.84 148.744 1113.18 147.856Q1113.52 146.967 1113.89 146.088Q1114.25 145.208 1114.64 144.338Q1115.03 143.467 1115.44 142.607Q1115.84 141.746 1116.27 140.896Q1116.7 140.046 1117.16 139.207Q1117.61 138.368 1118.08 137.54Q1118.55 136.713 1119.04 135.897Q1119.53 135.081 1120.05 134.278Q1120.56 133.475 1121.09 132.685C1133.85 113.899 1152.39 105.639 1173.99 101.499Z"/>
	<path fill="#76AF0A" transform="scale(0.0535294 0.0488281)" d="M1859.23 619.5C1882.16 618.614 1947.91 624.125 1967.37 636.836C1967.32 637.135 1967.28 637.435 1967.22 637.732C1966.52 641.217 1960.49 646.98 1958.08 649.772C1935.14 676.325 1907.98 700.595 1877.58 718.363Q1870.34 722.682 1862.86 726.561Q1855.37 730.439 1847.67 733.862Q1839.97 737.286 1832.07 740.243Q1824.18 743.199 1816.12 745.678C1764.05 762.138 1734.18 756.875 1682.88 743.404C1696.57 739.279 1710.52 730.98 1723.81 725.312C1738.11 719.213 1754.77 714.624 1768.17 707.004C1791.92 699.311 1815.29 689.546 1838.78 681.015C1843.29 679.375 1860.92 674.774 1863.54 672.814C1864.13 672.372 1864.82 671.192 1865.3 670.578L1866.16 671.193C1863.44 670.256 1854.43 673.237 1851.21 673.908C1792.08 686.23 1737.31 708.178 1680.7 728.399C1688.9 722.473 1698.35 707.711 1705.31 699.718C1744.95 654.181 1798.53 623.689 1859.23 619.5Z"/>
	<path fill="#40B9DF" transform="scale(0.0535294 0.0488281)" d="M1007.75 215.398C1032.2 214.471 1054.64 219.973 1074.37 234.857Q1075.35 235.613 1076.32 236.392Q1077.28 237.172 1078.23 237.975Q1079.17 238.778 1080.1 239.605Q1081.02 240.431 1081.92 241.28Q1082.83 242.129 1083.71 243Q1084.59 243.871 1085.45 244.764Q1086.31 245.657 1087.15 246.57Q1087.99 247.484 1088.8 248.418Q1089.62 249.352 1090.41 250.306Q1091.2 251.26 1091.97 252.233Q1092.74 253.207 1093.48 254.199Q1094.23 255.191 1094.95 256.201Q1095.67 257.211 1096.36 258.238Q1097.05 259.266 1097.72 260.31Q1098.39 261.355 1099.03 262.416Q1099.68 263.476 1100.29 264.552Q1100.91 265.629 1101.5 266.72Q1102.09 267.811 1102.65 268.916Q1103.21 270.021 1103.74 271.14Q1104.28 272.259 1104.78 273.391Q1105.29 274.523 1105.77 275.667Q1106.25 276.811 1106.7 277.966Q1107.15 279.122 1107.57 280.288Q1107.99 281.454 1108.38 282.63Q1108.77 283.807 1109.14 284.992Q1109.5 286.178 1109.83 287.372Q1110.17 288.566 1110.47 289.768Q1110.78 290.971 1111.05 292.18Q1111.32 293.389 1111.57 294.605Q1111.81 295.82 1112.03 297.042Q1112.24 298.263 1112.42 299.489Q1112.61 300.716 1112.76 301.946Q1112.92 303.156 1113.05 304.37Q1113.18 305.584 1113.28 306.8Q1113.38 308.017 1113.45 309.236Q1113.52 310.454 1113.56 311.674Q1113.59 312.895 1113.6 314.115Q1113.61 315.336 1113.59 316.556Q1113.57 317.777 1113.52 318.996Q1113.47 320.216 1113.39 321.434Q1113.31 322.652 1113.2 323.868Q1113.08 325.083 1112.94 326.296Q1112.8 327.508 1112.63 328.717Q1112.46 329.925 1112.26 331.129Q1112.06 332.333 1111.83 333.532Q1111.6 334.731 1111.34 335.924Q1111.08 337.116 1110.79 338.302Q1110.5 339.488 1110.18 340.666Q1109.86 341.845 1109.51 343.015Q1109.17 344.185 1108.79 345.346Q1108.41 346.508 1108.01 347.659Q1107.6 348.811 1107.17 349.952Q1106.74 351.093 1106.28 352.223Q1105.82 353.354 1105.33 354.472Q1104.84 355.59 1104.32 356.697Q1103.8 357.803 1103.26 358.896Q1102.72 359.989 1102.15 361.068Q1101.58 362.147 1100.98 363.212Q1100.38 364.277 1099.76 365.326Q1099.14 366.376 1098.49 367.41Q1097.84 368.444 1097.17 369.462Q1096.49 370.48 1095.79 371.481Q1095.09 372.481 1094.37 373.465Q1093.65 374.448 1092.9 375.413C1075.74 397.82 1051.38 409.361 1023.89 412.922L1023.01 413.004C997.247 415.253 969.5 407.287 949.606 390.631Q948.677 389.858 947.767 389.062Q946.857 388.266 945.966 387.449Q945.076 386.631 944.206 385.791Q943.336 384.952 942.487 384.091Q941.638 383.23 940.811 382.349Q939.983 381.468 939.178 380.567Q938.372 379.665 937.589 378.745Q936.806 377.824 936.045 376.884Q935.285 375.944 934.548 374.986Q933.811 374.028 933.098 373.052Q932.384 372.076 931.695 371.082Q931.006 370.089 930.342 369.079Q929.677 368.069 929.038 367.043Q928.399 366.017 927.785 364.976Q927.171 363.935 926.582 362.879Q925.994 361.823 925.432 360.752Q924.87 359.682 924.335 358.598Q923.799 357.514 923.29 356.418Q922.781 355.321 922.3 354.212Q921.818 353.104 921.364 351.983Q920.909 350.863 920.483 349.732Q920.056 348.601 919.658 347.46Q919.259 346.318 918.888 345.168Q918.518 344.017 918.176 342.858Q917.834 341.698 917.52 340.531Q917.207 339.363 916.922 338.188Q916.637 337.013 916.382 335.832Q916.126 334.65 915.899 333.463Q915.672 332.275 915.475 331.083Q915.278 329.89 915.11 328.693Q914.942 327.496 914.803 326.295Q914.665 325.094 914.556 323.89C912.243 297.257 921.682 270.557 938.844 250.225C956.201 229.66 981.138 217.657 1007.75 215.398Z"/>
	<path fill="#1277B5" transform="scale(0.0535294 0.0488281)" d="M265.421 563.348L266.025 563.281C296.996 560.105 328.533 570.499 352.589 589.936Q353.76 590.878 354.909 591.849Q356.057 592.819 357.181 593.817Q358.304 594.816 359.404 595.841Q360.503 596.867 361.576 597.919Q362.65 598.972 363.697 600.05Q364.744 601.129 365.765 602.232Q366.786 603.336 367.779 604.465Q368.772 605.593 369.737 606.746Q370.702 607.898 371.639 609.074Q372.575 610.25 373.483 611.449Q374.39 612.647 375.268 613.868Q376.146 615.088 376.993 616.33Q377.841 617.571 378.657 618.833Q379.474 620.096 380.26 621.377Q381.045 622.659 381.799 623.96Q382.553 625.26 383.275 626.579Q383.996 627.898 384.685 629.234Q385.374 630.57 386.031 631.923Q386.687 633.275 387.309 634.643Q387.932 636.012 388.521 637.395Q389.11 638.778 389.665 640.175Q390.219 641.572 390.74 642.983Q391.26 644.393 391.745 645.816Q392.231 647.239 392.681 648.673Q393.132 650.107 393.547 651.552Q393.962 652.997 394.341 654.452Q394.721 655.906 395.064 657.37Q395.408 658.833 395.716 660.305Q396.023 661.776 396.295 663.255Q396.566 664.733 396.801 666.218Q397.036 667.703 397.235 669.193Q397.433 670.683 397.595 672.178C400.657 701.66 392.863 733.064 373.973 756.276C355.03 779.555 327.295 789.661 298.24 792.639C267.711 795.751 235.333 785.922 210.959 767.507Q209.821 766.643 208.704 765.752Q207.587 764.86 206.492 763.942Q205.397 763.023 204.325 762.078Q203.253 761.133 202.204 760.162Q201.156 759.191 200.131 758.194Q199.107 757.198 198.107 756.177Q197.107 755.155 196.133 754.11Q195.158 753.065 194.21 751.996Q193.261 750.927 192.339 749.835Q191.417 748.743 190.522 747.629Q189.627 746.515 188.759 745.38Q187.891 744.244 187.052 743.087Q186.212 741.931 185.401 740.754Q184.59 739.577 183.808 738.381Q183.027 737.185 182.274 735.97Q181.522 734.755 180.799 733.522Q180.077 732.289 179.385 731.038Q178.693 729.788 178.031 728.521Q177.37 727.254 176.74 725.971Q176.11 724.689 175.512 723.391Q174.913 722.093 174.347 720.781Q173.78 719.469 173.246 718.143Q172.712 716.818 172.21 715.48Q171.708 714.141 171.24 712.791Q170.771 711.441 170.336 710.08Q169.9 708.719 169.498 707.348Q169.096 705.976 168.728 704.595Q168.359 703.214 168.025 701.825Q167.69 700.436 167.39 699.038Q167.089 697.641 166.823 696.237Q166.557 694.833 166.326 693.423Q166.094 692.012 165.897 690.597C161.765 660.494 169.125 630.413 187.622 606.231C206.666 581.336 234.712 567.365 265.421 563.348Z"/>
	<path fill="#1277B5" transform="scale(0.0535294 0.0488281)" d="M1853.98 770.499L1855.04 770.54C1854.86 770.913 1854.56 771.612 1854.29 771.987C1851.3 776.213 1844.25 780.675 1840.14 784.055C1805.49 812.532 1767.59 834.265 1726.82 852.732C1503.9 953.704 1212.78 942.739 974.412 911.926C839.434 894.478 705.958 869.49 569.868 861.058C446.877 853.437 321.469 854.168 199.293 871.505Q147.932 879.127 97.2473 890.401C93.4257 891.412 89.4836 892.058 85.6024 892.807C274.912 804.001 519.895 805.307 724.259 826.45C850.934 839.556 976.652 861.022 1103.5 872.884C1239.91 885.642 1377.73 888.101 1513.94 871.681C1631.87 857.464 1748.95 827.091 1853.98 770.499Z"/>
	<path fill="#40B9DF" transform="scale(0.0535294 0.0488281)" d="M985.66 428.357Q991.763 427.899 997.881 427.769C1083.79 426.249 1185.58 480.116 1246.02 538.635C1282.33 573.797 1310.8 613.164 1335.77 657.026C1339.46 663.494 1347.35 674.741 1347.46 681.845C1405.12 689.984 1456.03 719.626 1495.08 762.447C1500.71 768.62 1520.56 789.694 1520.22 796.963C1493.3 790.026 1467.15 780.536 1440.31 773.501C1440.17 773.384 1440.04 773.254 1439.9 773.148C1434.43 769.198 1417.67 764.701 1410.36 762.117C1394.95 756.662 1378.54 749.79 1362.12 748.588C1343.78 747.246 1308.43 757.831 1289.12 761.881Q1267.31 766.28 1245.27 769.272C1163.88 780.699 1068.52 776.259 1000.58 724.816C946.174 683.627 919.276 618.446 910.394 552.344C906.289 521.799 905.319 486.121 925.077 460.377C939.69 441.338 962.346 431.434 985.66 428.357Z"/>
	<path fill="#FAFCFA" transform="scale(0.0535294 0.0488281)" d="M1076.15 512.482C1082.34 512.86 1088.93 516.393 1094.69 518.61Q1106.66 523.121 1118.38 528.236Q1130.1 533.351 1141.54 539.058Q1152.98 544.765 1164.12 551.048Q1175.26 557.331 1186.06 564.175C1227.43 590.223 1265.16 623.4 1297.62 659.85C1301.83 664.571 1310.52 672.746 1311.94 679.022L1309.23 680.371C1308.48 680.622 1307.83 680.828 1307.04 680.959C1297.37 682.568 1286.8 682.262 1277.02 682.063C1234.01 681.187 1187.8 671.97 1152.04 646.941C1106.09 614.782 1085.49 566.084 1076.15 512.482Z"/>
	<path fill="#1277B5" transform="scale(0.0535294 0.0488281)" d="M661.737 532.481C694.545 531.982 728.435 538.913 758.921 550.782C809.394 570.433 853.357 603.877 888.332 645.02C901.947 661.035 914.162 678.215 927.765 694.252Q956.839 727.864 989.22 758.303C922.357 742.549 864.159 690.415 806.969 654.468C790.018 643.813 773.022 633.567 754.328 626.188C701.5 605.335 648.053 611.478 596.666 633.796C670.952 636.819 736.991 677.971 801.785 710.307C827.422 723.102 854.111 734.579 880.654 745.354C1080.74 826.575 1345.66 830.05 1558.63 809.247L1625.94 802.787C1639.68 801.5 1654.37 801.005 1667.81 797.95C1696.14 796.703 1823.91 768.907 1845.03 750.774C1844.42 751.946 1843.74 753.036 1842.84 754.012C1830.13 767.815 1749.74 799.3 1727.56 806.787C1660.89 829.286 1592.6 841.968 1523.01 851.394C1371.94 871.855 1217.41 867.135 1066.15 851.034C942.084 837.828 818.75 817.329 694.519 805.869C595.8 796.762 494.772 794.13 395.882 801.651C397.894 734.508 423.27 668.111 469.076 618.7C520.782 562.926 586.246 535.41 661.737 532.481Z"/>
</svg>
