<svg xmlns="http://www.w3.org/2000/svg" xmlns:xlink="http://www.w3.org/1999/xlink" width="230" zoomAndPan="magnify" viewBox="0 0 172.5 37.5" height="50" preserveAspectRatio="xMidYMid meet" version="1.0"><defs><g/><clipPath id="cdf0418bb3"><path d="M 0.886719 0 L 171.117188 0 L 171.117188 37.007812 L 0.886719 37.007812 Z M 0.886719 0 " clip-rule="nonzero"/></clipPath><clipPath id="d7211cf038"><path d="M 16 0.410156 L 54 0.410156 L 54 26 L 16 26 Z M 16 0.410156 " clip-rule="nonzero"/></clipPath><clipPath id="42de5f5ddd"><path d="M 75 18.503906 L 142 18.503906 L 142 19 L 75 19 Z M 75 18.503906 " clip-rule="nonzero"/></clipPath><clipPath id="d627669dfe"><path d="M 141 18.503906 L 142 18.503906 L 142 19.242188 L 141 19.242188 Z M 141 18.503906 " clip-rule="nonzero"/></clipPath><clipPath id="1e8787f497"><path d="M 141 18.503906 L 142.523438 18.503906 L 142.523438 19 L 141 19 Z M 141 18.503906 " clip-rule="nonzero"/></clipPath><clipPath id="019a318541"><path d="M 75 18.503906 L 76 18.503906 L 76 19.242188 L 75 19.242188 Z M 75 18.503906 " clip-rule="nonzero"/></clipPath><clipPath id="efd4bec7b4"><path d="M 74.433594 18.503906 L 76 18.503906 L 76 19 L 74.433594 19 Z M 74.433594 18.503906 " clip-rule="nonzero"/></clipPath></defs><g clip-path="url(#cdf0418bb3)"><path fill="#ffffff" d="M 0.886719 0 L 171.117188 0 L 171.117188 37.007812 L 0.886719 37.007812 Z M 0.886719 0 " fill-opacity="1" fill-rule="nonzero"/><path fill="#faf6f2" d="M 0.886719 0 L 171.117188 0 L 171.117188 37.007812 L 0.886719 37.007812 Z M 0.886719 0 " fill-opacity="1" fill-rule="nonzero"/></g><path fill="#2b6658" d="M 16.488281 32.835938 C 16.488281 32.835938 13.304688 30.027344 15.234375 28.261719 C 16.097656 27.472656 17.617188 27.011719 19.867188 29.242188 C 19.867188 29.242188 22.402344 31.902344 23.207031 28.859375 C 23.207031 28.859375 22.777344 33.921875 19.199219 30.023438 C 19.199219 30.023438 17.453125 28.054688 16.0625 29.246094 C 15.71875 29.539062 15.164062 30.613281 16.488281 32.835938 Z M 16.488281 32.835938 " fill-opacity="1" fill-rule="nonzero"/><path fill="#2b6658" d="M 20.257812 28.890625 C 20.257812 28.890625 24.222656 23.667969 31.199219 30.261719 C 31.199219 30.261719 33.929688 33.542969 38.445312 31.082031 C 38.445312 31.082031 43.542969 27.050781 51.144531 32.621094 C 51.144531 32.621094 44.035156 29.652344 40.277344 31.707031 C 40.277344 31.707031 33.972656 36.582031 29.007812 30.636719 C 29.007812 30.632812 25.726562 26.789062 20.257812 28.890625 Z M 20.257812 28.890625 " fill-opacity="1" fill-rule="nonzero"/><path fill="#2b6658" d="M 32.71875 17.976562 C 32.71875 17.976562 31.582031 22.71875 27.175781 23.300781 C 27.175781 23.300781 23.195312 24.25 21.40625 26.949219 C 21.40625 26.949219 24.535156 24.640625 27.710938 24.328125 C 27.710938 24.328125 31.691406 24.058594 32.71875 17.976562 Z M 32.71875 17.976562 " fill-opacity="1" fill-rule="nonzero"/><path fill="#2b6658" d="M 40.832031 19.175781 C 40.832031 19.175781 39.691406 23.914062 35.285156 24.496094 C 35.285156 24.496094 31.304688 25.445312 29.515625 28.148438 C 29.515625 28.148438 32.644531 25.839844 35.820312 25.523438 C 35.820312 25.523438 39.800781 25.257812 40.832031 19.175781 Z M 40.832031 19.175781 " fill-opacity="1" fill-rule="nonzero"/><path fill="#2b6658" d="M 34.539062 17.589844 C 34.539062 17.589844 31.164062 15.613281 32.765625 12.09375 C 32.765625 12.09375 33.464844 10.789062 35.464844 11.296875 C 35.464844 11.296875 37.476562 11.699219 36.550781 14.472656 C 36.550781 14.472656 35.464844 16.875 37.550781 18.347656 C 37.550781 18.347656 39.382812 19.304688 39.847656 20.808594 C 39.847656 20.808594 40.027344 19.171875 37.878906 17.589844 C 37.878906 17.589844 36.597656 16.546875 37.328125 14.609375 C 37.328125 14.609375 38.886719 10.984375 35.179688 10.148438 C 35.179688 10.148438 31.199219 9.632812 31.296875 14.046875 C 31.296875 14.046875 31.296875 17.484375 34.539062 17.589844 Z M 34.539062 17.589844 " fill-opacity="1" fill-rule="nonzero"/><path fill="#2b6658" d="M 40.414062 22.898438 C 40.414062 22.898438 42.679688 23.675781 42.21875 25.566406 C 42.21875 25.566406 41.171875 28.546875 43.246094 29.21875 C 43.246094 29.21875 42.097656 28.054688 42.910156 26.058594 C 42.910156 26.058594 43.945312 23.238281 40.414062 22.898438 Z M 40.414062 22.898438 " fill-opacity="1" fill-rule="nonzero"/><g clip-path="url(#d7211cf038)"><path fill="#2b6658" d="M 17.015625 21.296875 C 17.015625 11.269531 25.144531 3.140625 35.171875 3.140625 C 45.199219 3.140625 53.332031 11.269531 53.332031 21.296875 C 53.332031 22.628906 53.183594 23.925781 52.914062 25.179688 C 53.554688 23.285156 53.902344 21.261719 53.902344 19.152344 C 53.902344 8.804688 45.515625 0.421875 35.171875 0.421875 C 24.828125 0.421875 16.441406 8.804688 16.441406 19.152344 C 16.441406 21.261719 16.789062 23.285156 17.433594 25.175781 C 17.160156 23.925781 17.015625 22.628906 17.015625 21.296875 Z M 17.015625 21.296875 " fill-opacity="1" fill-rule="nonzero"/></g><g clip-path="url(#42de5f5ddd)"><path fill="#2b6658" d="M 141.679688 18.742188 L 75.273438 18.742188 C 75.152344 18.742188 75.0625 18.792969 75.0625 18.847656 C 75.0625 18.898438 75.167969 18.953125 75.273438 18.953125 L 141.699219 18.953125 C 141.820312 18.953125 141.910156 18.898438 141.910156 18.847656 C 141.910156 18.777344 141.804688 18.742188 141.679688 18.742188 Z M 141.679688 18.742188 " fill-opacity="1" fill-rule="nonzero"/></g><g clip-path="url(#d627669dfe)"><path fill="#2b6658" d="M 141.734375 18.53125 L 141.804688 18.6875 C 141.820312 18.742188 141.839844 18.792969 141.875 18.847656 L 141.804688 19.003906 C 141.785156 19.058594 141.75 19.109375 141.734375 19.164062 C 141.714844 19.109375 141.679688 19.058594 141.664062 19.003906 L 141.59375 18.847656 C 141.628906 18.792969 141.644531 18.742188 141.664062 18.6875 Z M 141.734375 18.53125 " fill-opacity="1" fill-rule="nonzero"/></g><g clip-path="url(#1e8787f497)"><path fill="#2b6658" d="M 142.523438 18.847656 L 142.171875 18.8125 C 142.050781 18.792969 141.925781 18.792969 141.820312 18.777344 L 141.46875 18.8125 C 141.347656 18.828125 141.222656 18.828125 141.117188 18.847656 C 141.242188 18.863281 141.363281 18.863281 141.46875 18.882812 L 141.820312 18.917969 C 141.945312 18.898438 142.066406 18.898438 142.171875 18.882812 Z M 142.523438 18.847656 " fill-opacity="1" fill-rule="nonzero"/></g><g clip-path="url(#019a318541)"><path fill="#2b6658" d="M 75.222656 19.144531 L 75.152344 18.988281 C 75.132812 18.933594 75.117188 18.882812 75.082031 18.828125 L 75.152344 18.671875 C 75.167969 18.617188 75.203125 18.566406 75.222656 18.515625 C 75.238281 18.566406 75.273438 18.617188 75.292969 18.671875 L 75.363281 18.828125 C 75.328125 18.882812 75.308594 18.933594 75.292969 18.988281 Z M 75.222656 19.144531 " fill-opacity="1" fill-rule="nonzero"/></g><g clip-path="url(#efd4bec7b4)"><path fill="#2b6658" d="M 74.433594 18.847656 L 74.78125 18.882812 C 74.90625 18.898438 75.027344 18.898438 75.132812 18.917969 L 75.484375 18.882812 C 75.609375 18.863281 75.730469 18.863281 75.835938 18.847656 C 75.714844 18.828125 75.589844 18.828125 75.484375 18.8125 L 75.132812 18.777344 C 75.011719 18.792969 74.886719 18.792969 74.78125 18.8125 Z M 74.433594 18.847656 " fill-opacity="1" fill-rule="nonzero"/></g><g fill="#2b6658" fill-opacity="1"><g transform="translate(71.082589, 15.422737)"><g><path d="M 1.546875 -11.421875 L 4.8125 -11.421875 C 6.226562 -11.421875 7.304688 -11.207031 8.046875 -10.78125 C 8.785156 -10.351562 9.15625 -9.625 9.15625 -8.59375 C 9.15625 -7.914062 8.96875 -7.351562 8.59375 -6.90625 C 8.21875 -6.46875 7.675781 -6.1875 6.96875 -6.0625 L 6.96875 -5.984375 C 7.457031 -5.898438 7.894531 -5.753906 8.28125 -5.546875 C 8.664062 -5.347656 8.96875 -5.0625 9.1875 -4.6875 C 9.414062 -4.3125 9.53125 -3.832031 9.53125 -3.25 C 9.53125 -2.21875 9.175781 -1.414062 8.46875 -0.84375 C 7.757812 -0.28125 6.789062 0 5.5625 0 L 1.546875 0 Z M 2.984375 -6.5625 L 5.109375 -6.5625 C 6.078125 -6.5625 6.742188 -6.71875 7.109375 -7.03125 C 7.472656 -7.34375 7.65625 -7.8125 7.65625 -8.4375 C 7.65625 -9.0625 7.4375 -9.507812 7 -9.78125 C 6.5625 -10.050781 5.851562 -10.1875 4.875 -10.1875 L 2.984375 -10.1875 Z M 2.984375 -5.359375 L 2.984375 -1.21875 L 5.296875 -1.21875 C 6.304688 -1.21875 7.007812 -1.414062 7.40625 -1.8125 C 7.800781 -2.207031 8 -2.722656 8 -3.359375 C 8 -3.953125 7.789062 -4.429688 7.375 -4.796875 C 6.96875 -5.171875 6.238281 -5.359375 5.1875 -5.359375 Z M 2.984375 -5.359375 "/></g></g></g><g fill="#2b6658" fill-opacity="1"><g transform="translate(81.478515, 15.422737)"><g><path d="M 1.890625 0 L 0.25 0 L 2.703125 -3.59375 C 2.367188 -3.675781 2.046875 -3.8125 1.734375 -4 C 1.429688 -4.1875 1.179688 -4.445312 0.984375 -4.78125 C 0.796875 -5.113281 0.703125 -5.535156 0.703125 -6.046875 C 0.703125 -6.859375 0.976562 -7.484375 1.53125 -7.921875 C 2.09375 -8.359375 2.832031 -8.578125 3.75 -8.578125 L 7.578125 -8.578125 L 7.578125 0 L 6.171875 0 L 6.171875 -3.40625 L 4.09375 -3.40625 Z M 2.0625 -6.03125 C 2.0625 -5.53125 2.242188 -5.160156 2.609375 -4.921875 C 2.984375 -4.691406 3.5 -4.578125 4.15625 -4.578125 L 6.171875 -4.578125 L 6.171875 -7.40625 L 3.890625 -7.40625 C 3.234375 -7.40625 2.765625 -7.273438 2.484375 -7.015625 C 2.203125 -6.753906 2.0625 -6.425781 2.0625 -6.03125 Z M 2.0625 -6.03125 "/></g></g></g><g fill="#2b6658" fill-opacity="1"><g transform="translate(90.419011, 15.422737)"><g><path d="M 2.59375 -8.578125 L 2.59375 -5.453125 C 2.59375 -4.472656 3.140625 -3.984375 4.234375 -3.984375 C 4.773438 -3.984375 5.265625 -4.066406 5.703125 -4.234375 C 6.140625 -4.398438 6.585938 -4.617188 7.046875 -4.890625 L 7.046875 -8.578125 L 8.453125 -8.578125 L 8.453125 0 L 7.046875 0 L 7.046875 -3.828125 C 6.554688 -3.515625 6.078125 -3.269531 5.609375 -3.09375 C 5.148438 -2.914062 4.597656 -2.828125 3.953125 -2.828125 C 3.066406 -2.828125 2.382812 -3.054688 1.90625 -3.515625 C 1.425781 -3.972656 1.1875 -4.585938 1.1875 -5.359375 L 1.1875 -8.578125 Z M 2.59375 -8.578125 "/></g></g></g><g fill="#2b6658" fill-opacity="1"><g transform="translate(100.223168, 15.422737)"><g><path d="M 4.671875 -8.734375 C 5.398438 -8.734375 6.03125 -8.570312 6.5625 -8.25 C 7.09375 -7.9375 7.5 -7.488281 7.78125 -6.90625 C 8.0625 -6.320312 8.203125 -5.640625 8.203125 -4.859375 L 8.203125 -4.015625 L 2.34375 -4.015625 C 2.363281 -3.046875 2.609375 -2.304688 3.078125 -1.796875 C 3.554688 -1.296875 4.222656 -1.046875 5.078125 -1.046875 C 5.617188 -1.046875 6.097656 -1.09375 6.515625 -1.1875 C 6.941406 -1.289062 7.378906 -1.4375 7.828125 -1.625 L 7.828125 -0.40625 C 7.390625 -0.207031 6.957031 -0.0664062 6.53125 0.015625 C 6.101562 0.109375 5.597656 0.15625 5.015625 0.15625 C 4.191406 0.15625 3.46875 -0.00390625 2.84375 -0.328125 C 2.226562 -0.660156 1.742188 -1.148438 1.390625 -1.796875 C 1.046875 -2.453125 0.875 -3.257812 0.875 -4.21875 C 0.875 -5.15625 1.03125 -5.957031 1.34375 -6.625 C 1.664062 -7.300781 2.109375 -7.820312 2.671875 -8.1875 C 3.242188 -8.550781 3.910156 -8.734375 4.671875 -8.734375 Z M 4.65625 -7.578125 C 3.976562 -7.578125 3.445312 -7.359375 3.0625 -6.921875 C 2.675781 -6.492188 2.445312 -5.898438 2.375 -5.140625 L 6.734375 -5.140625 C 6.722656 -5.859375 6.550781 -6.441406 6.21875 -6.890625 C 5.894531 -7.347656 5.375 -7.578125 4.65625 -7.578125 Z M 4.65625 -7.578125 "/></g></g></g><g fill="#2b6658" fill-opacity="1"><g transform="translate(109.243634, 15.422737)"><g><path d="M 4.796875 0.15625 C 4.023438 0.15625 3.347656 0.00390625 2.765625 -0.296875 C 2.179688 -0.609375 1.71875 -1.085938 1.375 -1.734375 C 1.039062 -2.390625 0.875 -3.222656 0.875 -4.234375 C 0.875 -5.296875 1.046875 -6.15625 1.390625 -6.8125 C 1.742188 -7.476562 2.222656 -7.960938 2.828125 -8.265625 C 3.441406 -8.578125 4.128906 -8.734375 4.890625 -8.734375 C 5.316406 -8.734375 5.734375 -8.6875 6.140625 -8.59375 C 6.554688 -8.507812 6.894531 -8.398438 7.15625 -8.265625 L 6.71875 -7.109375 C 6.46875 -7.203125 6.171875 -7.289062 5.828125 -7.375 C 5.484375 -7.457031 5.160156 -7.5 4.859375 -7.5 C 3.179688 -7.5 2.34375 -6.414062 2.34375 -4.25 C 2.34375 -3.21875 2.546875 -2.425781 2.953125 -1.875 C 3.359375 -1.332031 3.96875 -1.0625 4.78125 -1.0625 C 5.238281 -1.0625 5.648438 -1.109375 6.015625 -1.203125 C 6.378906 -1.296875 6.710938 -1.410156 7.015625 -1.546875 L 7.015625 -0.296875 C 6.722656 -0.148438 6.398438 -0.0390625 6.046875 0.03125 C 5.703125 0.113281 5.285156 0.15625 4.796875 0.15625 Z M 4.796875 0.15625 "/></g></g></g><g fill="#2b6658" fill-opacity="1"><g transform="translate(116.920624, 15.422737)"><g><path d="M 7.890625 0 L 6.46875 0 L 6.46875 -7.40625 L 3.9375 -7.40625 C 3.800781 -5.601562 3.609375 -4.148438 3.359375 -3.046875 C 3.109375 -1.941406 2.78125 -1.140625 2.375 -0.640625 C 1.96875 -0.140625 1.457031 0.109375 0.84375 0.109375 C 0.707031 0.109375 0.570312 0.0976562 0.4375 0.078125 C 0.300781 0.0664062 0.191406 0.0390625 0.109375 0 L 0.109375 -1.0625 C 0.171875 -1.039062 0.238281 -1.019531 0.3125 -1 C 0.394531 -0.988281 0.472656 -0.984375 0.546875 -0.984375 C 1.117188 -0.984375 1.578125 -1.597656 1.921875 -2.828125 C 2.273438 -4.054688 2.539062 -5.972656 2.71875 -8.578125 L 7.890625 -8.578125 Z M 7.890625 0 "/></g></g></g><g fill="#2b6658" fill-opacity="1"><g transform="translate(126.164996, 15.422737)"><g><path d="M 4.609375 -8.71875 C 5.648438 -8.71875 6.421875 -8.488281 6.921875 -8.03125 C 7.429688 -7.570312 7.6875 -6.84375 7.6875 -5.84375 L 7.6875 0 L 6.65625 0 L 6.390625 -1.21875 L 6.3125 -1.21875 C 5.945312 -0.75 5.554688 -0.398438 5.140625 -0.171875 C 4.722656 0.046875 4.15625 0.15625 3.4375 0.15625 C 2.65625 0.15625 2.007812 -0.046875 1.5 -0.453125 C 0.988281 -0.867188 0.734375 -1.515625 0.734375 -2.390625 C 0.734375 -3.234375 1.066406 -3.890625 1.734375 -4.359375 C 2.410156 -4.828125 3.445312 -5.082031 4.84375 -5.125 L 6.296875 -5.171875 L 6.296875 -5.6875 C 6.296875 -6.394531 6.140625 -6.882812 5.828125 -7.15625 C 5.523438 -7.4375 5.09375 -7.578125 4.53125 -7.578125 C 4.082031 -7.578125 3.65625 -7.507812 3.25 -7.375 C 2.84375 -7.25 2.460938 -7.097656 2.109375 -6.921875 L 1.6875 -7.984375 C 2.050781 -8.179688 2.488281 -8.351562 3 -8.5 C 3.519531 -8.644531 4.054688 -8.71875 4.609375 -8.71875 Z M 6.28125 -4.1875 L 5.03125 -4.140625 C 3.957031 -4.097656 3.210938 -3.925781 2.796875 -3.625 C 2.390625 -3.332031 2.1875 -2.914062 2.1875 -2.375 C 2.1875 -1.882812 2.332031 -1.523438 2.625 -1.296875 C 2.925781 -1.078125 3.304688 -0.96875 3.765625 -0.96875 C 4.472656 -0.96875 5.066406 -1.164062 5.546875 -1.5625 C 6.035156 -1.96875 6.28125 -2.585938 6.28125 -3.421875 Z M 6.28125 -4.1875 "/></g></g></g><g fill="#2b6658" fill-opacity="1"><g transform="translate(135.137476, 15.422737)"><g><path d="M 8.25 -6.421875 C 8.25 -5.878906 8.085938 -5.457031 7.765625 -5.15625 C 7.453125 -4.863281 7.046875 -4.664062 6.546875 -4.5625 L 6.546875 -4.5 C 7.066406 -4.425781 7.523438 -4.234375 7.921875 -3.921875 C 8.328125 -3.617188 8.53125 -3.148438 8.53125 -2.515625 C 8.53125 -1.785156 8.257812 -1.179688 7.71875 -0.703125 C 7.175781 -0.234375 6.289062 0 5.0625 0 L 1.359375 0 L 1.359375 -8.578125 L 5.046875 -8.578125 C 5.648438 -8.578125 6.191406 -8.507812 6.671875 -8.375 C 7.160156 -8.238281 7.546875 -8.015625 7.828125 -7.703125 C 8.109375 -7.390625 8.25 -6.960938 8.25 -6.421875 Z M 6.828125 -6.234375 C 6.828125 -6.640625 6.679688 -6.9375 6.390625 -7.125 C 6.097656 -7.3125 5.617188 -7.40625 4.953125 -7.40625 L 2.765625 -7.40625 L 2.765625 -5.0625 L 4.703125 -5.0625 C 6.117188 -5.0625 6.828125 -5.453125 6.828125 -6.234375 Z M 7.078125 -2.515625 C 7.078125 -3.003906 6.890625 -3.351562 6.515625 -3.5625 C 6.140625 -3.78125 5.585938 -3.890625 4.859375 -3.890625 L 2.765625 -3.890625 L 2.765625 -1.140625 L 4.890625 -1.140625 C 5.597656 -1.140625 6.140625 -1.242188 6.515625 -1.453125 C 6.890625 -1.660156 7.078125 -2.015625 7.078125 -2.515625 Z M 7.078125 -2.515625 "/></g></g></g><g fill="#2b6658" fill-opacity="1"><g transform="translate(144.355612, 15.422737)"><g/></g></g><g fill="#2b6658" fill-opacity="1"><g transform="translate(83.544552, 30.761475)"><g><path d="M 9.890625 0 L 8.15625 0 L 2.984375 -5.796875 L 2.984375 0 L 1.546875 0 L 1.546875 -11.421875 L 2.984375 -11.421875 L 2.984375 -5.890625 L 8.03125 -11.421875 L 9.65625 -11.421875 L 4.703125 -5.875 Z M 9.890625 0 "/></g></g></g><g fill="#2b6658" fill-opacity="1"><g transform="translate(93.428678, 30.761475)"><g><path d="M 0.015625 -8.578125 L 1.515625 -8.578125 L 3.375 -3.703125 C 3.53125 -3.265625 3.671875 -2.851562 3.796875 -2.46875 C 3.929688 -2.082031 4.03125 -1.710938 4.09375 -1.359375 L 4.15625 -1.359375 C 4.21875 -1.628906 4.316406 -1.976562 4.453125 -2.40625 C 4.597656 -2.84375 4.742188 -3.28125 4.890625 -3.71875 L 6.640625 -8.578125 L 8.15625 -8.578125 L 4.46875 1.1875 C 4.15625 2 3.765625 2.644531 3.296875 3.125 C 2.828125 3.601562 2.175781 3.84375 1.34375 3.84375 C 1.082031 3.84375 0.859375 3.828125 0.671875 3.796875 C 0.484375 3.773438 0.316406 3.75 0.171875 3.71875 L 0.171875 2.59375 C 0.296875 2.613281 0.4375 2.632812 0.59375 2.65625 C 0.757812 2.675781 0.9375 2.6875 1.125 2.6875 C 1.613281 2.6875 2.003906 2.546875 2.296875 2.265625 C 2.597656 1.992188 2.84375 1.628906 3.03125 1.171875 L 3.46875 0.03125 Z M 0.015625 -8.578125 "/></g></g></g><g fill="#2b6658" fill-opacity="1"><g transform="translate(101.585485, 30.761475)"><g><path d="M 5.4375 -8.734375 C 6.5 -8.734375 7.347656 -8.363281 7.984375 -7.625 C 8.628906 -6.894531 8.953125 -5.785156 8.953125 -4.296875 C 8.953125 -2.835938 8.628906 -1.726562 7.984375 -0.96875 C 7.347656 -0.21875 6.492188 0.15625 5.421875 0.15625 C 4.765625 0.15625 4.21875 0.0351562 3.78125 -0.203125 C 3.351562 -0.453125 3.015625 -0.75 2.765625 -1.09375 L 2.671875 -1.09375 C 2.679688 -0.90625 2.695312 -0.671875 2.71875 -0.390625 C 2.75 -0.117188 2.765625 0.113281 2.765625 0.3125 L 2.765625 3.84375 L 1.359375 3.84375 L 1.359375 -8.578125 L 2.515625 -8.578125 L 2.703125 -7.40625 L 2.765625 -7.40625 C 3.023438 -7.78125 3.363281 -8.09375 3.78125 -8.34375 C 4.195312 -8.601562 4.75 -8.734375 5.4375 -8.734375 Z M 5.1875 -7.546875 C 4.3125 -7.546875 3.691406 -7.300781 3.328125 -6.8125 C 2.960938 -6.320312 2.773438 -5.578125 2.765625 -4.578125 L 2.765625 -4.296875 C 2.765625 -3.242188 2.9375 -2.429688 3.28125 -1.859375 C 3.632812 -1.296875 4.28125 -1.015625 5.21875 -1.015625 C 5.726562 -1.015625 6.15625 -1.15625 6.5 -1.4375 C 6.84375 -1.71875 7.09375 -2.109375 7.25 -2.609375 C 7.414062 -3.109375 7.5 -3.675781 7.5 -4.3125 C 7.5 -5.300781 7.3125 -6.085938 6.9375 -6.671875 C 6.5625 -7.253906 5.976562 -7.546875 5.1875 -7.546875 Z M 5.1875 -7.546875 "/></g></g></g><g fill="#2b6658" fill-opacity="1"><g transform="translate(111.421625, 30.761475)"><g><path d="M 2.6875 -8.578125 L 2.6875 -3.34375 C 2.6875 -3.207031 2.679688 -3.015625 2.671875 -2.765625 C 2.660156 -2.515625 2.644531 -2.253906 2.625 -1.984375 C 2.613281 -1.722656 2.601562 -1.523438 2.59375 -1.390625 L 7.1875 -8.578125 L 8.90625 -8.578125 L 8.90625 0 L 7.59375 0 L 7.59375 -5.0625 C 7.59375 -5.226562 7.59375 -5.445312 7.59375 -5.71875 C 7.601562 -6 7.613281 -6.273438 7.625 -6.546875 C 7.632812 -6.816406 7.644531 -7.023438 7.65625 -7.171875 L 3.109375 0 L 1.359375 0 L 1.359375 -8.578125 Z M 2.6875 -8.578125 "/></g></g></g><g fill="#2b6658" fill-opacity="1"><g transform="translate(121.705598, 30.761475)"><g><path d="M 2.765625 -8.578125 L 2.765625 -5.015625 L 7.421875 -5.015625 L 7.421875 -8.578125 L 8.828125 -8.578125 L 8.828125 0 L 7.421875 0 L 7.421875 -3.828125 L 2.765625 -3.828125 L 2.765625 0 L 1.359375 0 L 1.359375 -8.578125 Z M 2.765625 -8.578125 "/></g></g></g><g fill="#2b6658" fill-opacity="1"><g transform="translate(131.895959, 30.761475)"><g/></g></g></svg>