<svg width="202" height="51" viewBox="0 0 202 51" fill="none" xmlns="http://www.w3.org/2000/svg">
<g clip-path="url(#clip0_2378_84)">
<path d="M33.71 19.2289C34.0484 19.375 34.3731 19.5136 34.6714 19.7128C36.3669 21.1051 38.3469 22.3601 40.1545 23.6608C46.8041 28.4462 54.3603 33.9537 57.4609 40.972C57.953 42.0861 58.179 43.1871 58.4719 44.3384C56.111 44.4257 52.0809 44.3965 49.8952 44.7663C44.2524 42.7741 41.2394 36.4149 39.062 31.9761C37.8024 29.4082 36.6924 26.7764 35.5862 24.1615C35.4061 23.7357 34.1119 20.459 33.9843 20.4012L33.9558 20.4194C33.7732 20.0866 33.7682 19.5937 33.71 19.2289Z" fill="#FFE7AA"/>
<path d="M96.607 20.6296C96.9022 20.4961 97.1878 20.3247 97.5392 20.3816C97.5963 20.4271 97.6714 20.457 97.6705 20.5254C97.6672 20.7583 97.4709 21.0515 97.2742 21.2155C97.2656 21.2724 97.2571 21.324 97.2364 21.3788C96.5386 23.2088 95.4301 25.0229 94.584 26.8177C91.859 32.5958 89.4942 38.7559 84.2144 43.3388C83.479 43.9772 82.5253 44.8081 81.5939 45.2418C78.3929 44.8891 75.1329 44.6268 71.9097 44.5104C72.3735 44.069 72.7139 42.4535 72.9814 41.8384C73.2598 41.207 73.5743 40.5883 73.925 39.9821C76.9777 34.6733 82.3773 30.0998 87.7816 26.3838C88.7653 25.707 96.5081 20.8683 96.5353 20.8317C96.5693 20.7855 96.5874 20.6848 96.607 20.6296Z" fill="#FFE7AA"/>
<path d="M30.2643 47.0814C26.1951 41.6934 24.5603 34.9229 25.4468 28.6741C26.5809 20.6804 31.663 13.7455 39.262 8.82056C47.9598 3.18337 59.5417 0.69484 70.5223 1.8298C81.2721 2.94087 91.508 7.41519 98.2244 14.5306C103.822 20.4593 106.69 27.9832 105.573 35.4722C105.499 35.9351 105.412 36.3964 105.314 36.8561C105.215 37.3157 105.104 37.7734 104.982 38.2292C104.86 38.6849 104.727 39.1382 104.581 39.5891C104.435 40.04 104.278 40.488 104.109 40.9333C103.941 41.3785 103.76 41.8206 103.568 42.2593C103.377 42.6981 103.174 43.1333 102.96 43.5648C102.746 43.9964 102.521 44.4239 102.285 44.8473C102.048 45.2708 101.8 45.6899 101.543 46.1046C101.19 46.6783 100.764 47.5296 100.15 47.9226C99.2354 47.6864 98.2799 47.5374 97.3459 47.3647C98.0525 46.8048 98.5914 45.9228 99.0679 45.2106C99.2314 44.9641 99.3908 44.7157 99.5461 44.4653C99.7007 44.2148 99.8505 43.9625 99.9955 43.7083C100.141 43.4541 100.282 43.1982 100.418 42.9405C100.555 42.6828 100.686 42.4234 100.814 42.1624C100.94 41.9014 101.062 41.6389 101.18 41.3749C101.297 41.1108 101.41 40.8453 101.518 40.5784C101.625 40.3116 101.728 40.0434 101.826 39.7739C101.924 39.5045 102.018 39.2338 102.106 38.962C102.194 38.6902 102.277 38.4174 102.355 38.1435C102.434 37.8695 102.507 37.5947 102.576 37.3189C102.644 37.0432 102.708 36.7666 102.766 36.4892C102.825 36.2118 102.878 35.9338 102.927 35.6551C102.975 35.3763 103.018 35.097 103.056 34.8172C103.095 34.5373 103.128 34.2571 103.156 33.9763C103.184 33.6956 103.207 33.4146 103.225 33.1332C103.243 32.8519 103.256 32.5704 103.264 32.2887C103.421 25.2906 99.7085 18.2477 93.8405 13.2192C86.6146 7.02666 76.3762 3.59595 66.0497 3.43799C65.7239 3.43115 65.3985 3.42763 65.0734 3.42741C64.7483 3.42725 64.4228 3.43037 64.0968 3.43675C63.7716 3.44314 63.4466 3.45284 63.1217 3.46584C62.7967 3.47885 62.472 3.49516 62.1476 3.51478C61.8231 3.5344 61.499 3.55731 61.1753 3.58349C60.8515 3.60973 60.5282 3.63922 60.2054 3.67196C59.8826 3.70471 59.5603 3.74076 59.2387 3.78013C58.9169 3.81944 58.5959 3.86203 58.2755 3.9079C57.9551 3.95372 57.6355 4.00281 57.3166 4.0552C56.9977 4.10752 56.6796 4.1631 56.3624 4.22193C56.0452 4.28076 55.729 4.34279 55.4137 4.40802C55.0984 4.4733 54.7841 4.54175 54.4708 4.61337C54.1576 4.68505 53.8455 4.75987 53.5346 4.83783C53.2236 4.91584 52.9139 4.997 52.6054 5.08129C52.2968 5.16558 51.9896 5.25302 51.6838 5.34359C51.3779 5.43416 51.0734 5.52782 50.7704 5.62455C50.4674 5.72128 50.1659 5.8211 49.8658 5.924C49.5658 6.02689 49.2673 6.13284 48.9705 6.24184C48.6737 6.35078 48.3785 6.46274 48.0849 6.57772C47.7915 6.69271 47.4998 6.81068 47.2098 6.93165C46.9199 7.05256 46.6319 7.17641 46.3457 7.30318C46.0595 7.42996 45.7752 7.55964 45.4929 7.69222C45.2106 7.82481 44.9303 7.96026 44.652 8.0986C44.3738 8.23687 44.0977 8.37799 43.8236 8.52195C43.5497 8.66585 43.2779 8.81253 43.0082 8.962C42.7386 9.11147 42.4713 9.26367 42.2062 9.41859C41.9412 9.57351 41.6785 9.73113 41.4182 9.89144C41.1578 10.0517 40.8999 10.2146 40.6445 10.3801C40.389 10.5457 40.1361 10.7138 39.8857 10.8845C39.6353 11.0552 39.3875 11.2284 39.1422 11.4041C38.897 11.5799 38.6544 11.7581 38.4145 11.9389C38.1746 12.1196 37.9374 12.3027 37.703 12.4883C31.5577 17.4251 27.6839 24.4155 27.599 31.5549C27.5973 31.7207 27.5973 31.8865 27.5991 32.0523C27.601 32.2181 27.6046 32.3839 27.6099 32.5497C27.6154 32.7154 27.6226 32.8812 27.6315 33.0468C27.6404 33.2125 27.6511 33.3781 27.6636 33.5437C27.6761 33.7092 27.6904 33.8747 27.7064 34.04C27.7225 34.2053 27.7403 34.3706 27.7599 34.5357C27.7795 34.7008 27.8009 34.8658 27.8241 35.0305C27.8471 35.1953 27.8721 35.3599 27.8988 35.5244C27.9254 35.6889 27.9539 35.8531 27.9841 36.0172C28.0142 36.1812 28.0461 36.345 28.0799 36.5086C28.1136 36.6723 28.149 36.8356 28.1862 36.9987C28.2234 37.1618 28.2624 37.3246 28.3031 37.4872C28.3438 37.6497 28.3862 37.8119 28.4304 37.9739C28.4745 38.1358 28.5204 38.2974 28.5681 38.4586C28.6157 38.6199 28.6651 38.7808 28.7163 38.9414C28.7674 39.102 28.8202 39.2622 28.8747 39.422C28.9292 39.5818 28.9854 39.7412 29.0434 39.9002C29.1013 40.0592 29.161 40.2178 29.2224 40.3759C29.2837 40.5341 29.3467 40.6918 29.4115 40.849C29.4761 41.0062 29.5425 41.1629 29.6106 41.3192C29.6787 41.4754 29.7484 41.6312 29.8199 41.7864C29.8913 41.9417 29.9644 42.0965 30.0391 42.2507C30.1138 42.4049 30.1902 42.5586 30.2682 42.7116C30.3463 42.8647 30.4259 43.0173 30.5072 43.1692C30.5885 43.3212 30.6715 43.4725 30.756 43.6232C30.8405 43.774 30.9267 43.9241 31.0144 44.0736C31.1021 44.2231 31.1915 44.3719 31.2824 44.5201C31.3733 44.6683 31.4658 44.8159 31.5599 44.9627C31.654 45.1096 31.7497 45.2558 31.8469 45.4012C31.9441 45.5467 32.0428 45.6915 32.1432 45.8355C32.2435 45.9795 32.3453 46.1228 32.4487 46.2654C32.5521 46.4079 32.657 46.5497 32.7635 46.6907C31.9169 46.7934 31.0975 46.9199 30.2643 47.0814Z" fill="black"/>
<path d="M65.0111 12.2335C66.8879 12.114 68.7134 12.5619 70.1656 13.5705C70.2587 13.6363 70.35 13.7039 70.4393 13.7733C70.528 13.8427 70.6151 13.9139 70.7007 13.9868C70.7856 14.0597 70.8682 14.1343 70.9486 14.2105C71.029 14.2867 71.1075 14.3646 71.1842 14.444C71.2601 14.5233 71.3338 14.6041 71.4052 14.6864C71.4766 14.7687 71.5454 14.8524 71.6116 14.9374C71.6778 15.0225 71.7418 15.1088 71.8035 15.1964C71.8645 15.284 71.9232 15.3728 71.9797 15.4628C72.0355 15.5527 72.0886 15.6437 72.1392 15.7358C72.1905 15.8279 72.2388 15.9209 72.2841 16.0148C72.3294 16.1088 72.3718 16.2037 72.4112 16.2994C72.4513 16.395 72.4881 16.4914 72.5216 16.5885C72.5557 16.6856 72.587 16.7834 72.6152 16.8818C72.6434 16.9801 72.6691 17.0789 72.6921 17.1783C72.7144 17.2777 72.7338 17.3774 72.7501 17.4775C72.7672 17.5776 72.781 17.678 72.7914 17.7786C72.8027 17.8759 72.8106 17.9733 72.8151 18.0709C72.8204 18.1685 72.8228 18.2661 72.8221 18.3637C72.8215 18.4614 72.8179 18.559 72.8113 18.6564C72.8048 18.7539 72.7953 18.8511 72.7828 18.9482C72.7703 19.0453 72.7549 19.142 72.7365 19.2384C72.7181 19.3347 72.6972 19.4307 72.6736 19.5262C72.6493 19.6217 72.6224 19.7166 72.593 19.811C72.5628 19.9054 72.53 19.9991 72.4946 20.0921C72.4592 20.1851 72.4213 20.2774 72.3807 20.3688C72.3395 20.4602 72.2956 20.5508 72.2492 20.6404C72.2028 20.73 72.1537 20.8186 72.1022 20.9062C72.0506 20.9938 71.9964 21.0802 71.9397 21.1655C71.8829 21.2508 71.8236 21.3349 71.7617 21.4179C71.6998 21.5007 71.6354 21.5822 71.5683 21.6625C71.5013 21.7427 71.432 21.8214 71.3606 21.8988C71.2884 21.9761 71.2144 22.052 71.1386 22.1262C69.8402 23.381 68.1191 24.0391 66.1389 24.1605C66.0677 24.1721 65.9987 24.1831 65.9274 24.1917C64.4152 24.3741 62.6987 23.8196 61.489 23.0852C61.3905 23.0257 61.2938 22.9642 61.199 22.9008C61.1042 22.8373 61.0113 22.772 60.9205 22.7047C60.8295 22.6376 60.7406 22.5685 60.6539 22.4977C60.5671 22.4268 60.4825 22.3542 60.4 22.2799C60.3176 22.2056 60.2374 22.1296 60.1595 22.052C60.0815 21.9745 60.006 21.8954 59.9328 21.8148C59.8596 21.734 59.7889 21.6519 59.7206 21.5684C59.6524 21.4849 59.5866 21.4 59.5234 21.3138C59.4602 21.2276 59.3996 21.1401 59.3417 21.0515C59.2838 20.9628 59.2285 20.873 59.176 20.7821C59.1233 20.6912 59.0735 20.5992 59.0264 20.5063C58.9794 20.4134 58.9351 20.3196 58.8937 20.2248C58.8523 20.1301 58.8137 20.0346 58.778 19.9383C58.7423 19.8421 58.7094 19.7451 58.6796 19.6475C58.6497 19.5499 58.6227 19.4518 58.5987 19.3531C58.5747 19.2544 58.5536 19.1553 58.5356 19.0558C58.2578 17.5131 58.7696 15.8075 59.8932 14.5612C61.1559 13.1606 62.9513 12.4657 65.0111 12.2335Z" fill="#FFE7AA"/>
<path d="M65.4066 35.4114C68.1679 29.5741 72.6738 25.5219 79.684 23.017C83.0256 21.8228 86.3762 21.326 89.8968 20.6704C89.8822 20.6817 89.8676 20.6933 89.8519 20.7041C89.3 21.0884 85.5423 22.0906 84.5022 22.5157C76.7908 25.666 69.8691 31.6022 68.9272 38.9552C68.7599 40.2649 68.7865 41.5413 68.9925 42.8477C69.0506 43.2201 69.3442 44.0663 69.1542 44.3858C68.277 44.5983 62.574 44.3275 61.2041 44.3128C62.5391 39.4513 61.9562 35.4426 58.7095 31.1575C55.7093 27.1974 50.8502 23.5755 45.709 21.6181C44.0939 21.0032 42.4104 20.5918 40.7025 20.2008C47.7056 20.5299 55.637 23.5587 60.3021 27.8596C62.7095 30.079 64.2384 32.6156 65.4066 35.4114Z" fill="#FFE7AA"/>
<path d="M122.804 24.805L123.584 24.61V16.29L122.804 16.095V15.9H126.314C127.632 15.9 128.598 16.1123 129.213 16.537C129.837 16.953 130.149 17.499 130.149 18.175C130.149 18.643 130.015 19.02 129.746 19.306C129.478 19.592 129.135 19.8043 128.719 19.943C128.277 20.099 127.801 20.1813 127.289 20.19V20.255C127.922 20.281 128.472 20.3763 128.94 20.541C129.417 20.697 129.811 20.9397 130.123 21.269C130.444 21.5983 130.604 22.0187 130.604 22.53C130.604 23.3013 130.288 23.908 129.655 24.35C129.023 24.7833 127.996 25 126.574 25H122.804V24.805ZM126.314 20.06C126.6 20.06 126.865 19.982 127.107 19.826C127.359 19.6613 127.558 19.436 127.705 19.15C127.861 18.8553 127.939 18.5303 127.939 18.175C127.939 17.7937 127.861 17.4557 127.705 17.161C127.558 16.8663 127.359 16.6367 127.107 16.472C126.865 16.3073 126.6 16.225 126.314 16.225H125.729V20.06H126.314ZM126.574 24.675C127.112 24.675 127.549 24.4843 127.887 24.103C128.225 23.7217 128.394 23.1973 128.394 22.53C128.394 21.8627 128.225 21.3383 127.887 20.957C127.549 20.5757 127.112 20.385 126.574 20.385H125.729V24.675H126.574ZM133.395 24.805L134.045 24.61L134.565 23.05C134.704 22.634 135.072 22.3307 135.67 22.14C135.913 22.0707 136.195 22.0273 136.515 22.01V21.945C136.117 21.9363 135.727 21.867 135.345 21.737C134.565 21.4597 134.175 20.9873 134.175 20.32C134.175 19.7827 134.44 19.345 134.968 19.007C135.506 18.669 136.368 18.5 137.555 18.5H141V18.695L140.22 18.89V24.61L141 24.805V25H137.36V24.805L138.14 24.61V22.14H137.1L136.515 23.96C136.42 24.246 136.234 24.493 135.956 24.701C135.688 24.9003 135.354 25 134.955 25H133.395V24.805ZM138.14 21.815V18.825H137.555C137.183 18.825 136.884 18.955 136.658 19.215C136.433 19.4663 136.32 19.8347 136.32 20.32C136.32 20.8053 136.433 21.178 136.658 21.438C136.884 21.6893 137.183 21.815 137.555 21.815H138.14ZM147.954 24.805L148.734 24.61V22.335C148.56 22.439 148.348 22.5213 148.097 22.582C147.854 22.634 147.611 22.66 147.369 22.66C146.519 22.66 145.882 22.491 145.458 22.153C145.042 21.815 144.834 21.3557 144.834 20.775V18.89L144.054 18.695V18.5H147.694V18.695L146.914 18.89V20.775C146.914 21.3383 146.996 21.7413 147.161 21.984C147.334 22.218 147.577 22.335 147.889 22.335C148.235 22.335 148.517 22.2267 148.734 22.01V18.89L147.954 18.695V18.5H151.594V18.695L150.814 18.89V24.61L151.594 24.805V25H147.954V24.805ZM158.481 25.195C157.371 25.195 156.509 24.8917 155.894 24.285C155.278 23.6697 154.971 22.8247 154.971 21.75C154.971 21.048 155.105 20.437 155.374 19.917C155.642 19.397 156.015 18.9983 156.492 18.721C156.977 18.4437 157.532 18.305 158.156 18.305C158.78 18.305 159.326 18.422 159.794 18.656C160.27 18.89 160.634 19.2063 160.886 19.605C161.146 19.995 161.276 20.4283 161.276 20.905C161.276 21.1217 161.254 21.308 161.211 21.464L161.146 21.685C160.773 21.763 160.37 21.828 159.937 21.88C159.027 22.01 158.108 22.075 157.181 22.075C157.181 23.0803 157.319 23.7997 157.597 24.233C157.874 24.6577 158.255 24.87 158.741 24.87C159.079 24.87 159.391 24.792 159.677 24.636C159.971 24.4713 160.201 24.259 160.366 23.999C160.539 23.7303 160.626 23.4573 160.626 23.18H160.951C160.951 23.5267 160.847 23.856 160.639 24.168C160.431 24.48 160.14 24.7313 159.768 24.922C159.395 25.104 158.966 25.195 158.481 25.195ZM157.181 21.75C157.735 21.75 158.186 21.7283 158.533 21.685C158.68 21.6763 158.836 21.6547 159.001 21.62C159.009 21.5767 159.031 21.4813 159.066 21.334C159.109 21.1173 159.131 20.8877 159.131 20.645C159.131 19.9257 159.035 19.4013 158.845 19.072C158.654 18.734 158.424 18.565 158.156 18.565C157.506 18.565 157.181 19.6267 157.181 21.75ZM168.095 25.195C166.986 25.195 166.123 24.8917 165.508 24.285C164.893 23.6697 164.585 22.8247 164.585 21.75C164.585 20.6753 164.893 19.8347 165.508 19.228C166.123 18.6127 166.986 18.305 168.095 18.305C168.892 18.305 169.49 18.4437 169.889 18.721C170.296 18.9983 170.5 19.3363 170.5 19.735C170.5 20.0297 170.409 20.268 170.227 20.45C170.054 20.6233 169.82 20.71 169.525 20.71C169.404 20.71 169.282 20.7013 169.161 20.684L169.005 20.645V18.695L168.823 18.63C168.693 18.5867 168.537 18.565 168.355 18.565C167.861 18.565 167.475 18.799 167.198 19.267C166.929 19.735 166.795 20.5627 166.795 21.75C166.795 22.9027 166.929 23.713 167.198 24.181C167.475 24.6403 167.861 24.87 168.355 24.87C168.693 24.87 169.005 24.792 169.291 24.636C169.586 24.4713 169.815 24.259 169.98 23.999C170.153 23.7303 170.24 23.4573 170.24 23.18H170.565C170.565 23.5267 170.461 23.856 170.253 24.168C170.045 24.48 169.755 24.7313 169.382 24.922C169.009 25.104 168.58 25.195 168.095 25.195ZM174.404 25.195C174.014 25.195 173.71 25.091 173.494 24.883C173.277 24.675 173.169 24.389 173.169 24.025C173.169 23.739 173.264 23.4963 173.455 23.297C173.654 23.089 173.884 22.985 174.144 22.985C174.213 22.985 174.282 22.9937 174.352 23.011C174.421 23.0197 174.469 23.024 174.495 23.024L174.664 23.05V24.805C174.872 24.7097 175.054 24.519 175.21 24.233C175.366 23.947 175.465 23.466 175.509 22.79L175.769 18.955L174.859 18.695V18.5H180.904V18.695L180.124 18.89V24.61L180.904 24.805V25H177.264V24.805L178.044 24.61V18.825H176.159L175.899 22.79C175.847 23.6133 175.682 24.22 175.405 24.61C175.127 25 174.794 25.195 174.404 25.195ZM186.819 25.195C186.047 25.195 185.454 25.0303 185.038 24.701C184.622 24.3717 184.414 23.9513 184.414 23.44C184.414 23.102 184.487 22.7683 184.635 22.439C184.695 22.283 184.773 22.14 184.869 22.01C185.224 21.9233 185.61 21.8453 186.026 21.776C186.962 21.62 187.789 21.5247 188.509 21.49V21.1C188.509 20.138 188.392 19.475 188.158 19.111C187.924 18.747 187.564 18.565 187.079 18.565C186.897 18.565 186.741 18.5867 186.611 18.63L186.429 18.695V20.645L186.26 20.684C186.121 20.7013 186.004 20.71 185.909 20.71C185.614 20.71 185.376 20.6233 185.194 20.45C185.02 20.268 184.934 20.0297 184.934 19.735C184.934 19.3363 185.133 18.9983 185.532 18.721C185.939 18.4437 186.541 18.305 187.339 18.305C188.015 18.305 188.595 18.4263 189.081 18.669C189.575 18.903 189.947 19.2323 190.199 19.657C190.459 20.073 190.589 20.554 190.589 21.1V24.61L191.369 24.805V25H190.199C189.679 25 189.276 24.8397 188.99 24.519C188.868 24.389 188.773 24.2243 188.704 24.025C188.582 24.2417 188.439 24.4367 188.275 24.61C187.885 25 187.399 25.195 186.819 25.195ZM187.339 24.74C187.659 24.74 187.95 24.5667 188.21 24.22C188.305 24.09 188.405 23.9167 188.509 23.7V21.815C188.11 21.815 187.729 21.8367 187.365 21.88C187.096 21.9147 186.914 21.9363 186.819 21.945C186.775 22.0403 186.732 22.1703 186.689 22.335C186.602 22.6643 186.559 22.9893 186.559 23.31C186.559 23.7953 186.632 24.155 186.78 24.389C186.927 24.623 187.113 24.74 187.339 24.74ZM194.495 24.805L195.275 24.61V18.89L194.495 18.695V18.5H197.81C198.564 18.5 199.183 18.578 199.669 18.734C200.163 18.89 200.518 19.0937 200.735 19.345C200.951 19.5877 201.06 19.8477 201.06 20.125C201.06 20.4717 200.947 20.7533 200.722 20.97C200.505 21.1867 200.228 21.3427 199.89 21.438C199.526 21.5507 199.136 21.6113 198.72 21.62V21.685C199.231 21.6937 199.686 21.7587 200.085 21.88C200.483 22.01 200.808 22.1833 201.06 22.4C201.32 22.608 201.45 22.8897 201.45 23.245C201.45 23.7563 201.181 24.1767 200.644 24.506C200.115 24.8353 199.257 25 198.07 25H194.495V24.805ZM197.81 21.49C198.113 21.49 198.373 21.3643 198.59 21.113C198.806 20.8617 198.915 20.5323 198.915 20.125C198.915 19.7437 198.806 19.4317 198.59 19.189C198.373 18.9463 198.113 18.825 197.81 18.825H197.355V21.49H197.81ZM198.07 24.675C198.442 24.675 198.741 24.5493 198.967 24.298C199.192 24.0467 199.305 23.6957 199.305 23.245C199.305 22.7943 199.192 22.4433 198.967 22.192C198.741 21.9407 198.442 21.815 198.07 21.815H197.355V24.675H198.07ZM137.08 40.805L137.86 40.61V32.29L137.08 32.095V31.9H140.785V32.095L140.005 32.29V35.995H140.655C141.305 35.995 141.738 35.5833 141.955 34.76L142.41 33.07C142.514 32.6713 142.683 32.355 142.917 32.121C143.16 31.887 143.446 31.77 143.775 31.77C144.156 31.77 144.468 31.8827 144.711 32.108C144.954 32.3247 145.075 32.602 145.075 32.94C145.075 33.2693 144.975 33.538 144.776 33.746C144.577 33.9453 144.33 34.045 144.035 34.045C143.914 34.045 143.792 34.0363 143.671 34.019L143.515 33.98V32.16C143.368 32.1947 143.229 32.2943 143.099 32.459C142.969 32.615 142.869 32.8187 142.8 33.07L142.345 34.76C142.215 35.2367 142.042 35.5833 141.825 35.8C141.73 35.904 141.621 35.9907 141.5 36.06H141.825C142.882 36.06 143.532 36.4283 143.775 37.165L144.945 40.61L145.595 40.805V41H144.035C143.576 41 143.22 40.9047 142.969 40.714C142.718 40.5233 142.531 40.2503 142.41 39.895L141.175 36.32H140.005V40.61L140.785 40.805V41H137.08V40.805ZM149.556 43.795C149.166 43.795 148.862 43.691 148.646 43.483C148.429 43.275 148.321 42.989 148.321 42.625C148.321 42.2957 148.407 42.04 148.581 41.858C148.763 41.676 149.001 41.585 149.296 41.585C149.365 41.585 149.434 41.5893 149.504 41.598C149.573 41.6153 149.621 41.624 149.647 41.624L149.816 41.65V43.405C150.067 43.3617 150.288 43.223 150.479 42.989C150.669 42.755 150.882 42.352 151.116 41.78L151.376 41.13L147.996 34.89L147.346 34.695V34.5H148.971C149.421 34.5 149.777 34.5953 150.037 34.786C150.305 34.968 150.535 35.241 150.726 35.605L152.351 38.608L153.716 35.085L152.741 34.695V34.5H155.146V34.695L154.106 35.085L151.506 41.78C151.228 42.4907 150.934 43.002 150.622 43.314C150.31 43.6347 149.954 43.795 149.556 43.795ZM157.61 43.405L158.39 43.21V34.89L157.61 34.695V34.5H158.78C159.292 34.5 159.695 34.6647 159.989 34.994C160.102 35.124 160.197 35.2843 160.275 35.475C160.388 35.2497 160.531 35.0547 160.704 34.89C161.094 34.5 161.58 34.305 162.16 34.305C162.672 34.305 163.127 34.4393 163.525 34.708C163.924 34.968 164.24 35.358 164.474 35.878C164.708 36.3893 164.825 37.0133 164.825 37.75C164.825 38.8593 164.565 39.713 164.045 40.311C163.534 40.9003 162.841 41.195 161.965 41.195C161.549 41.195 161.185 41.1083 160.873 40.935C160.743 40.8743 160.609 40.7877 160.47 40.675V43.21L161.25 43.405V43.6H157.61V43.405ZM161.445 40.805C161.818 40.805 162.104 40.5883 162.303 40.155C162.511 39.7217 162.615 38.92 162.615 37.75C162.615 36.632 162.52 35.8563 162.329 35.423C162.147 34.981 161.918 34.76 161.64 34.76C161.311 34.76 161.016 34.9333 160.756 35.28C160.644 35.4273 160.548 35.6007 160.47 35.8V40.285C160.592 40.4063 160.687 40.493 160.756 40.545C160.99 40.7183 161.22 40.805 161.445 40.805ZM168.205 41V40.805L168.985 40.61V34.89L168.205 34.695V34.5H171.845V34.695L171.065 34.89V39.18L173.145 35.605V34.89L172.365 34.695V34.5H176.005V34.695L175.225 34.89V40.61L176.005 40.805V41H172.365V40.805L173.145 40.61V36.32L171.065 39.895V40.61L171.845 40.805V41H168.205ZM179.381 41V40.805L180.161 40.61V34.89L179.381 34.695V34.5H183.021V34.695L182.241 34.89V37.555H184.191V34.89L183.411 34.695V34.5H187.051V34.695L186.271 34.89V40.61L187.051 40.805V41H183.411V40.805L184.191 40.61V37.88H182.241V40.61L183.021 40.805V41H179.381Z" fill="#7B705A"/>
</g>
<defs>
<clipPath id="clip0_2378_84">
<rect width="200" height="47" fill="white" transform="translate(1.56592 0.232239) rotate(0.804064)"/>
</clipPath>
</defs>
</svg>