<svg width="230" height="50" viewBox="0 0 230 50" fill="none" xmlns="http://www.w3.org/2000/svg">
<path d="M31.4999 45.2344C31.4999 45.2344 27.2551 41.4896 29.828 39.1354C30.9791 38.0834 33.0051 37.4688 36.0051 40.4427C36.0051 40.4427 39.3853 43.9896 40.4582 39.9323C40.4582 39.9323 39.8853 46.6823 35.1145 41.4844C35.1145 41.4844 32.7864 38.8594 30.9322 40.4479C30.4739 40.8386 29.7343 42.2709 31.4999 45.2344Z" fill="#2B6658"/>
<path d="M36.5259 39.974C36.5259 39.974 41.8123 33.0104 51.1144 41.8021C51.1144 41.8021 54.755 46.1771 60.7759 42.8959C60.7759 42.8959 67.5728 37.5209 77.7082 44.9479C77.7082 44.9479 68.229 40.9896 63.2186 43.7292C63.2186 43.7292 54.8123 50.2292 48.1925 42.3021C48.1925 42.2969 43.8175 37.1719 36.5259 39.974Z" fill="#2B6658"/>
<path d="M53.1405 25.4219C53.1405 25.4219 51.6248 31.7448 45.7498 32.5208C45.7498 32.5208 40.4425 33.7865 38.0571 37.3854C38.0571 37.3854 42.229 34.3073 46.4634 33.8906C46.4634 33.8906 51.7707 33.5313 53.1405 25.4219Z" fill="#2B6658"/>
<path d="M63.9582 27.0208C63.9582 27.0208 62.4373 33.3385 56.5623 34.1146C56.5623 34.1146 51.255 35.3802 48.8696 38.9844C48.8696 38.9844 53.0415 35.9062 57.2759 35.4844C57.2759 35.4844 62.5832 35.1302 63.9582 27.0208Z" fill="#2B6658"/>
<path d="M55.5675 24.9062C55.5675 24.9062 51.0675 22.2708 53.2029 17.5781C53.2029 17.5781 54.1352 15.8385 56.8018 16.5156C56.8018 16.5156 59.4841 17.0521 58.2498 20.75C58.2498 20.75 56.8018 23.9531 59.5831 25.9167C59.5831 25.9167 62.0258 27.1927 62.6456 29.1979C62.6456 29.1979 62.8852 27.0156 60.0206 24.9062C60.0206 24.9062 58.3123 23.5156 59.2862 20.9323C59.2862 20.9323 61.3643 16.099 56.4216 14.9844C56.4216 14.9844 51.1143 14.2969 51.2445 20.1823C51.2445 20.1823 51.2445 24.7656 55.5675 24.9062Z" fill="#2B6658"/>
<path d="M63.4009 31.9844C63.4009 31.9844 66.4217 33.0208 65.8071 35.5417C65.8071 35.5417 64.4113 39.5156 67.1769 40.4115C67.1769 40.4115 65.6457 38.8594 66.729 36.1979C66.729 36.1979 68.1092 32.4375 63.4009 31.9844Z" fill="#2B6658"/>
<mask id="mask0_2392_204" style="mask-type:luminance" maskUnits="userSpaceOnUse" x="30" y="2" width="52" height="35">
<path d="M30.8491 2H81.5158V36.1198H30.8491V2Z" fill="white"/>
</mask>
<g mask="url(#mask0_2392_204)">
<path d="M32.2031 29.849C32.2031 16.4792 43.0417 5.64063 56.4115 5.64063C69.7813 5.64063 80.625 16.4792 80.625 29.849C80.625 31.625 80.4271 33.3542 80.0677 35.026C80.9219 32.5 81.3854 29.8021 81.3854 26.9896C81.3854 13.1927 70.2031 2.01562 56.4115 2.01562C42.6198 2.01562 31.4375 13.1927 31.4375 26.9896C31.4375 29.8021 31.901 32.5 32.7604 35.0208C32.3958 33.3542 32.2031 31.625 32.2031 29.849Z" fill="#2B6658"/>
</g>
<mask id="mask1_2392_204" style="mask-type:luminance" maskUnits="userSpaceOnUse" x="109" y="26" width="90" height="1">
<path d="M109.516 26.125H198.849V26.7865H109.516V26.125Z" fill="white"/>
</mask>
<g mask="url(#mask1_2392_204)">
<path d="M198.422 26.4427H109.88C109.719 26.4427 109.599 26.5104 109.599 26.5833C109.599 26.651 109.74 26.7239 109.88 26.7239H198.448C198.61 26.7239 198.729 26.651 198.729 26.5833C198.729 26.4896 198.589 26.4427 198.422 26.4427Z" fill="#2B6658"/>
</g>
<mask id="mask2_2392_204" style="mask-type:luminance" maskUnits="userSpaceOnUse" x="197" y="26" width="2" height="2">
<path d="M197.516 26.125H198.849V27.1094H197.516V26.125Z" fill="white"/>
</mask>
<g mask="url(#mask2_2392_204)">
<path d="M198.495 26.1614L198.588 26.3698C198.609 26.4427 198.635 26.5104 198.682 26.5833L198.588 26.7916C198.562 26.8646 198.515 26.9323 198.495 27.0052C198.469 26.9323 198.422 26.8646 198.401 26.7916L198.307 26.5833C198.354 26.5104 198.375 26.4427 198.401 26.3698L198.495 26.1614Z" fill="#2B6658"/>
</g>
<mask id="mask3_2392_204" style="mask-type:luminance" maskUnits="userSpaceOnUse" x="197" y="26" width="3" height="1">
<path d="M197.516 26.125H199.547V26.7865H197.516V26.125Z" fill="white"/>
</mask>
<g mask="url(#mask3_2392_204)">
<path d="M199.547 26.5833L199.078 26.5364C198.917 26.5104 198.75 26.5104 198.609 26.4896L198.141 26.5364C197.979 26.5573 197.812 26.5573 197.672 26.5833C197.839 26.6041 198 26.6041 198.141 26.6302L198.609 26.6771C198.776 26.651 198.937 26.651 199.078 26.6302L199.547 26.5833Z" fill="#2B6658"/>
</g>
<mask id="mask4_2392_204" style="mask-type:luminance" maskUnits="userSpaceOnUse" x="109" y="26" width="2" height="2">
<path d="M109.516 26.125H110.849V27.1094H109.516V26.125Z" fill="white"/>
</mask>
<g mask="url(#mask4_2392_204)">
<path d="M109.813 26.9792L109.719 26.7708C109.693 26.6979 109.672 26.6302 109.625 26.5573L109.719 26.349C109.74 26.276 109.786 26.2083 109.813 26.1406C109.833 26.2083 109.88 26.276 109.906 26.349L110 26.5573C109.953 26.6302 109.927 26.6979 109.906 26.7708L109.813 26.9792Z" fill="#2B6658"/>
</g>
<mask id="mask5_2392_204" style="mask-type:luminance" maskUnits="userSpaceOnUse" x="108" y="26" width="3" height="1">
<path d="M108.76 26.125H110.849V26.7865H108.76V26.125Z" fill="white"/>
</mask>
<g mask="url(#mask5_2392_204)">
<path d="M108.76 26.5833L109.224 26.6302C109.39 26.651 109.552 26.651 109.693 26.6771L110.161 26.6302C110.328 26.6041 110.489 26.6041 110.63 26.5833C110.469 26.5573 110.302 26.5573 110.161 26.5364L109.693 26.4896C109.531 26.5104 109.364 26.5104 109.224 26.5364L108.76 26.5833Z" fill="#2B6658"/>
</g>
<path d="M106.355 6.7876H110.709C112.595 6.7876 114.032 7.07406 115.022 7.64176C116.006 8.21468 116.501 9.18343 116.501 10.5584C116.501 11.4647 116.251 12.2147 115.751 12.8084C115.251 13.3918 114.527 13.7668 113.584 13.9334V14.0376C114.235 14.1522 114.819 14.3449 115.334 14.6209C115.845 14.8866 116.251 15.2668 116.542 15.7668C116.845 16.2668 117.001 16.9074 117.001 17.6834C117.001 19.0584 116.527 20.1313 115.584 20.8918C114.636 21.6418 113.345 22.0168 111.709 22.0168H106.355V6.7876ZM108.272 13.2668H111.105C112.397 13.2668 113.282 13.0584 113.772 12.6418C114.256 12.2251 114.501 11.6001 114.501 10.7668C114.501 9.93343 114.209 9.33968 113.626 8.9751C113.042 8.61572 112.095 8.43343 110.792 8.43343H108.272V13.2668ZM108.272 14.8709V20.3918H111.355C112.699 20.3918 113.636 20.1313 114.167 19.6001C114.694 19.0741 114.959 18.3866 114.959 17.5376C114.959 16.7459 114.678 16.1105 114.126 15.6209C113.584 15.1209 112.61 14.8709 111.209 14.8709H108.272Z" fill="#2B6658"/>
<path d="M120.674 22.0168H118.487L121.758 17.2251C121.31 17.1157 120.883 16.9335 120.466 16.6835C120.06 16.4335 119.726 16.0897 119.466 15.6418C119.216 15.1991 119.091 14.6366 119.091 13.9543C119.091 12.871 119.456 12.0376 120.195 11.4543C120.945 10.871 121.93 10.5793 123.153 10.5793H128.258V22.0168H126.383V17.4751H123.612L120.674 22.0168ZM120.903 13.9751C120.903 14.6418 121.143 15.1366 121.633 15.4543C122.133 15.7616 122.82 15.9126 123.695 15.9126H126.383V12.1418H123.341C122.466 12.1418 121.841 12.3189 121.466 12.6626C121.091 13.0116 120.903 13.4491 120.903 13.9751Z" fill="#2B6658"/>
<path d="M133.533 10.5793V14.746C133.533 16.0532 134.262 16.7043 135.72 16.7043C136.439 16.7043 137.095 16.5949 137.679 16.371C138.262 16.1522 138.856 15.8605 139.47 15.496V10.5793H141.345V22.0168H139.47V16.9126C138.814 17.3293 138.179 17.6574 137.554 17.8918C136.939 18.1314 136.205 18.246 135.345 18.246C134.163 18.246 133.251 17.9439 132.616 17.3293C131.975 16.7199 131.658 15.9022 131.658 14.871V10.5793H133.533Z" fill="#2B6658"/>
<path d="M149.375 10.3709C150.344 10.3709 151.188 10.5897 151.896 11.0167C152.605 11.4334 153.146 12.0324 153.521 12.8084C153.896 13.5897 154.084 14.4959 154.084 15.5376V16.6626H146.271C146.297 17.9542 146.625 18.9438 147.25 19.6209C147.886 20.2876 148.777 20.6209 149.917 20.6209C150.636 20.6209 151.277 20.5584 151.834 20.4334C152.402 20.298 152.985 20.1001 153.584 19.8501V21.4751C153 21.7407 152.422 21.9282 151.855 22.0376C151.282 22.1626 150.61 22.2251 149.834 22.2251C148.735 22.2251 147.771 22.0115 146.938 21.5792C146.115 21.1365 145.469 20.4855 145 19.6209C144.542 18.7459 144.313 17.673 144.313 16.3917C144.313 15.1417 144.521 14.074 144.938 13.1834C145.365 12.2824 145.959 11.5897 146.709 11.1001C147.469 10.6157 148.36 10.3709 149.375 10.3709ZM149.355 11.9126C148.448 11.9126 147.74 12.2042 147.23 12.7876C146.714 13.3605 146.407 14.1522 146.313 15.1626H152.125C152.11 14.2042 151.881 13.4282 151.438 12.8292C151.006 12.2199 150.313 11.9126 149.355 11.9126Z" fill="#2B6658"/>
<path d="M161.569 22.2251C160.538 22.2251 159.637 22.022 158.861 21.6209C158.08 21.2042 157.465 20.5688 157.007 19.7042C156.559 18.8292 156.34 17.7199 156.34 16.3709C156.34 14.9542 156.569 13.8084 157.028 12.9334C157.497 12.048 158.137 11.4022 158.944 10.9959C159.762 10.5792 160.679 10.3709 161.694 10.3709C162.262 10.3709 162.819 10.4334 163.361 10.5584C163.913 10.673 164.366 10.8188 164.715 10.9959L164.132 12.5376C163.799 12.4126 163.403 12.298 162.944 12.1834C162.486 12.074 162.054 12.0167 161.653 12.0167C159.413 12.0167 158.299 13.4647 158.299 16.3501C158.299 17.7251 158.569 18.7824 159.111 19.5167C159.653 20.2407 160.465 20.6001 161.549 20.6001C162.158 20.6001 162.705 20.5376 163.194 20.4126C163.679 20.2876 164.122 20.1365 164.528 19.9542V21.6209C164.137 21.8188 163.705 21.9647 163.236 22.0584C162.778 22.1678 162.221 22.2251 161.569 22.2251Z" fill="#2B6658"/>
<path d="M175.931 22.0168H174.035V12.1418H170.66C170.478 14.548 170.222 16.4855 169.889 17.9543C169.556 19.4282 169.118 20.496 168.576 21.1626C168.035 21.8293 167.353 22.1626 166.535 22.1626C166.353 22.1626 166.17 22.147 165.993 22.121C165.811 22.1053 165.665 22.0689 165.556 22.0168V20.6001C165.639 20.6314 165.728 20.6574 165.826 20.6835C165.936 20.6991 166.04 20.7043 166.139 20.7043C166.899 20.7043 167.514 19.8866 167.972 18.246C168.441 16.6105 168.795 14.0532 169.035 10.5793H175.931V22.0168Z" fill="#2B6658"/>
<path d="M183.882 10.3918C185.267 10.3918 186.298 10.6991 186.965 11.3085C187.642 11.923 187.986 12.8918 187.986 14.2251V22.0168H186.611L186.257 20.3918H186.152C185.663 21.0168 185.142 21.4855 184.59 21.7876C184.033 22.0793 183.277 22.2251 182.319 22.2251C181.277 22.2251 180.413 21.9543 179.736 21.4126C179.053 20.8605 178.715 19.996 178.715 18.8293C178.715 17.7043 179.158 16.8293 180.048 16.2043C180.949 15.5793 182.329 15.2407 184.194 15.1835L186.132 15.121V14.4335C186.132 13.4907 185.923 12.8397 185.507 12.4751C185.1 12.1001 184.527 11.9126 183.777 11.9126C183.178 11.9126 182.611 12.0064 182.069 12.1835C181.527 12.3501 181.017 12.5532 180.548 12.7876L179.986 11.371C180.47 11.1105 181.053 10.8814 181.736 10.6835C182.428 10.4907 183.142 10.3918 183.882 10.3918ZM186.111 16.4335L184.444 16.496C183.012 16.5532 182.017 16.7824 181.465 17.1835C180.923 17.5741 180.652 18.1314 180.652 18.8501C180.652 19.5064 180.845 19.9855 181.236 20.2876C181.637 20.5793 182.142 20.7251 182.757 20.7251C183.699 20.7251 184.491 20.4647 185.132 19.9335C185.783 19.3918 186.111 18.5689 186.111 17.4543V16.4335Z" fill="#2B6658"/>
<path d="M200.699 13.4543C200.699 14.1782 200.48 14.7407 200.053 15.1418C199.636 15.5324 199.095 15.798 198.428 15.9335V16.0168C199.121 16.1157 199.73 16.371 200.261 16.7876C200.803 17.1939 201.074 17.8189 201.074 18.6626C201.074 19.6366 200.709 20.4439 199.99 21.0793C199.266 21.7043 198.084 22.0168 196.449 22.0168H191.511V10.5793H196.428C197.23 10.5793 197.954 10.673 198.595 10.8501C199.246 11.0324 199.761 11.3293 200.136 11.746C200.511 12.1626 200.699 12.7355 200.699 13.4543ZM198.803 13.7043C198.803 13.1626 198.605 12.7668 198.22 12.5168C197.829 12.2668 197.188 12.1418 196.303 12.1418H193.386V15.2668H195.97C197.855 15.2668 198.803 14.746 198.803 13.7043ZM199.136 18.6626C199.136 18.0116 198.886 17.548 198.386 17.2668C197.886 16.9751 197.147 16.8293 196.178 16.8293H193.386V20.496H196.22C197.162 20.496 197.886 20.3605 198.386 20.0793C198.886 19.8032 199.136 19.3293 199.136 18.6626Z" fill="#2B6658"/>
<path d="M134.096 43.85H131.783L124.887 36.1208V43.85H122.971V28.6208H124.887V35.9958L131.617 28.6208H133.783L127.179 36.0167L134.096 43.85Z" fill="#2B6658"/>
<path d="M134.108 32.4125H136.108L138.587 38.9125C138.795 39.4958 138.983 40.0479 139.15 40.5583C139.327 41.0739 139.462 41.5687 139.545 42.0375H139.629C139.712 41.6781 139.842 41.2146 140.025 40.6416C140.217 40.0583 140.41 39.475 140.608 38.8916L142.941 32.4125H144.962L140.045 45.4333C139.629 46.5166 139.108 47.376 138.483 48.0166C137.858 48.6521 136.988 48.975 135.879 48.975C135.53 48.975 135.233 48.9541 134.983 48.9125C134.733 48.8812 134.509 48.85 134.316 48.8083V47.3083C134.483 47.3344 134.67 47.3604 134.879 47.3916C135.097 47.4177 135.337 47.4333 135.587 47.4333C136.238 47.4333 136.759 47.2458 137.15 46.8708C137.551 46.5062 137.879 46.0219 138.129 45.4125L138.712 43.8916L134.108 32.4125Z" fill="#2B6658"/>
<path d="M152.213 32.2042C153.63 32.2042 154.76 32.699 155.609 33.6833C156.468 34.6573 156.9 36.1365 156.9 38.1208C156.9 40.0687 156.468 41.5479 155.609 42.5583C154.76 43.5583 153.619 44.0583 152.192 44.0583C151.317 44.0583 150.588 43.8969 150.005 43.5792C149.432 43.2458 148.984 42.85 148.65 42.3917H148.525C148.536 42.6417 148.557 42.9542 148.588 43.3292C148.63 43.6937 148.65 44.001 148.65 44.2667V48.975H146.775V32.4125H148.317L148.567 33.975H148.65C148.994 33.475 149.447 33.0583 150.005 32.725C150.557 32.3812 151.296 32.2042 152.213 32.2042ZM151.88 33.7875C150.713 33.7875 149.885 34.1156 149.4 34.7667C148.911 35.4229 148.661 36.4125 148.65 37.7458V38.1208C148.65 39.5271 148.88 40.6104 149.338 41.3708C149.807 42.1208 150.671 42.4958 151.921 42.4958C152.598 42.4958 153.171 42.3083 153.63 41.9333C154.088 41.5583 154.421 41.0375 154.63 40.3708C154.848 39.7042 154.963 38.949 154.963 38.1C154.963 36.7823 154.713 35.7354 154.213 34.9542C153.713 34.1781 152.932 33.7875 151.88 33.7875Z" fill="#2B6658"/>
<path d="M161.661 32.4125V39.3916C161.661 39.5739 161.651 39.8291 161.64 40.1625C161.625 40.4958 161.604 40.8448 161.578 41.2041C161.562 41.5531 161.546 41.8187 161.536 41.9958L167.661 32.4125H169.953V43.85H168.203V37.1C168.203 36.8812 168.203 36.5896 168.203 36.225C168.213 35.85 168.229 35.4854 168.244 35.1208C168.255 34.7614 168.27 34.4854 168.286 34.2875L162.223 43.85H159.89V32.4125H161.661Z" fill="#2B6658"/>
<path d="M175.477 32.4125V37.1625H181.685V32.4125H183.56V43.85H181.685V38.7458H175.477V43.85H173.602V32.4125H175.477Z" fill="#2B6658"/>
</svg>
